<svg width="60" height="60" viewBox="0 0 60 60" fill="none" xmlns="http://www.w3.org/2000/svg">
<path d="M30 60C13.458 60 0 46.542 0 30C0 13.458 13.458 0 30 0C46.542 0 60 13.458 60 30C60 46.542 46.542 60 30 60ZM30 3.6C15.4428 3.6 3.6 15.4428 3.6 30C3.6 44.5572 15.4428 56.4 30 56.4C44.5572 56.4 56.4 44.5572 56.4 30C56.4 15.4428 44.5572 3.6 30 3.6Z" fill="white"/>
<path d="M34.6525 46.1028C34.0285 45.6432 33.9625 44.9544 33.9625 44.9544L33.7285 43.4592H26.2711L26.0365 44.9538C26.0365 44.9538 25.9717 45.6432 25.3477 46.1028C24.7243 46.5624 24.2323 46.956 24.7243 47.0214C25.1983 47.0844 29.6707 47.0274 30.0001 47.0214C30.3307 47.0274 34.8019 47.0844 35.2759 47.0214C35.7667 46.956 35.2753 46.5624 34.6525 46.1028Z" fill="white"/>
<path d="M21.5999 34.1538C23.5925 34.1394 23.8403 33.6588 24.4895 31.6584C25.6871 28.5018 31.0805 32.4846 27.7379 33.8676C24.3953 35.2506 19.6073 34.1682 21.5999 34.1538Z" fill="white"/>
<path d="M42.0276 13.3518C41.0616 12.573 39.4596 12.9564 38.4504 14.2086L28.2294 28.7298C27.2202 29.9814 27.2256 29.7426 28.1916 30.5208C29.1582 31.2996 28.9254 31.356 29.934 30.1038L41.9502 17.0298C42.96 15.777 42.9942 14.1306 42.0276 13.3518ZM39.3996 15.09C39.3996 15.09 39.2502 14.916 38.7522 14.5176C39.4986 13.2984 40.9662 13.5222 40.9662 13.5222C39.5742 14.3442 39.3996 15.09 39.3996 15.09Z" fill="white"/>
<path d="M46.56 18.2592H42.066L40.0806 20.4192H45.8406V37.6986H14.1606V20.4192H32.5896L34.1106 18.2592H13.44C12.645 18.2592 12 18.9042 12 19.6992V40.5792C12 41.3742 12.645 42.0186 13.44 42.0186H46.56C47.3556 42.0186 48 41.3742 48 40.5792V19.6992C48 18.9036 47.3556 18.2592 46.56 18.2592Z" fill="white"/>
</svg>
