<svg width="60" height="60" viewBox="0 0 60 60" fill="none" xmlns="http://www.w3.org/2000/svg">
<path d="M25.0506 35.4588V39.1302L12 33.4734V30.3342L25.0506 24.678V28.3752L15.957 31.8786L25.0506 35.4588Z" fill="white"/>
<path d="M33.1199 24.6L29.4869 39.558C29.3663 40.0506 29.2607 40.4406 29.1695 40.7256C29.0789 41.0112 28.9403 41.235 28.7549 41.3928C28.5689 41.5536 28.2983 41.6328 27.9437 41.6328C27.0617 41.6328 26.6201 41.2506 26.6201 40.4916C26.6201 40.2924 26.7071 39.7956 26.8799 39L30.4997 24.042C30.6899 23.2464 30.8711 22.7016 31.0439 22.4076C31.2173 22.1136 31.5545 21.9666 32.0567 21.9666C32.4893 21.9666 32.8193 22.0704 33.0485 22.278C33.2777 22.4856 33.3923 22.7712 33.3923 23.1342C33.3923 23.4024 33.3011 23.8908 33.1199 24.6Z" fill="white"/>
<path d="M48.0001 33.4734L34.9495 39.156V35.4846L44.0695 31.9044L34.9495 28.3752V24.7296L48.0001 30.36V33.4734Z" fill="white"/>
<path d="M56.4 3.59998H3.6C1.6122 3.59998 0 5.21218 0 7.19998V52.8C0 54.7872 1.6122 56.4 3.6 56.4H56.4C58.3884 56.4 60 54.7872 60 52.8V7.19998C60 5.21158 58.3884 3.59998 56.4 3.59998ZM47.4 5.99998C48.723 5.99998 49.8 7.07638 49.8 8.39998C49.8 9.72358 48.723 10.8 47.4 10.8C46.077 10.8 45 9.72358 45 8.39998C45 7.07638 46.077 5.99998 47.4 5.99998ZM40.8 5.99998C42.123 5.99998 43.2 7.07638 43.2 8.39998C43.2 9.72358 42.123 10.8 40.8 10.8C39.477 10.8 38.4 9.72358 38.4 8.39998C38.4 7.07638 39.477 5.99998 40.8 5.99998ZM56.4 52.8H3.6V13.2H56.4V52.8ZM54 10.8C52.677 10.8 51.6 9.72358 51.6 8.39998C51.6 7.07638 52.677 5.99998 54 5.99998C55.323 5.99998 56.4 7.07638 56.4 8.39998C56.4 9.72358 55.323 10.8 54 10.8Z" fill="white"/>
</svg>
