<svg width="200" height="200" viewBox="0 0 200 200" fill="none" xmlns="http://www.w3.org/2000/svg">
<path d="M112.249 37.2623C112.254 48.3132 118.104 58.6449 127.862 64.2948V65.3756C123.703 65.3824 123.703 71.619 127.862 71.6255V74.7444C123.705 74.7564 123.708 81.0067 127.874 81.0067H128.436C129.721 84.622 133.133 87.2506 137.255 87.2506H149.731C153.853 87.2506 157.265 84.622 158.55 81.0067H159.124C163.295 81.0067 163.295 74.7444 159.124 74.7444V71.6255C163.283 71.6189 163.283 65.3825 159.124 65.3756V64.2948C168.882 58.6449 174.733 48.3132 174.737 37.2623C174.737 20.0445 160.819 6.00673 143.493 6C126.167 6.00661 112.249 20.0444 112.249 37.2623ZM100.72 18.4757C97.3815 18.2701 96.0964 22.7442 99.0352 24.3411L104.431 27.4539C108.071 29.6513 111.287 24.0968 107.568 22.034L102.148 18.9212C101.727 18.6672 101.253 18.5172 100.763 18.4818C100.751 18.4797 100.739 18.4776 100.715 18.4756L100.72 18.4757ZM186.229 18.4757C186.218 18.4775 186.194 18.4797 186.182 18.4818C185.692 18.5172 185.217 18.6684 184.797 18.9212L179.377 22.034C175.658 24.0968 178.872 29.6513 182.514 27.454L187.915 24.3411C190.854 22.7442 189.569 18.2697 186.231 18.4757H186.229ZM59.1246 21.6251C53.3655 21.6251 47.7838 23.6148 43.3228 27.2526C40.0895 29.8972 44.0562 34.7434 47.2899 32.0988C50.6366 29.3697 54.8035 27.8811 59.1246 27.8811C63.4459 27.8811 67.6127 29.3697 70.9593 32.0988C74.1899 34.7436 78.1572 29.8974 74.9265 27.2526C70.4656 23.6148 64.8839 21.6251 59.1246 21.6251ZM139.446 25.6595L143.481 29.7001L143.492 29.6882L143.504 29.7001L147.539 25.6595C148.148 25.0536 148.945 24.75 149.742 24.75C150.539 24.75 151.336 25.0536 151.945 25.6595L158.201 31.9157C161.62 34.8441 156.723 39.7409 153.795 36.3224L149.73 32.2818L145.695 36.3224C145.086 36.9283 144.289 37.2318 143.492 37.2318C142.695 37.2318 141.898 36.9283 141.289 36.3224L137.254 32.2818L133.189 36.3224C130.261 39.7409 125.364 34.8441 128.783 31.9157L135.039 25.6595C135.648 25.0536 136.445 24.75 137.243 24.75C138.04 24.75 138.837 25.0536 139.446 25.6595ZM96.6122 34.119C92.4416 34.119 92.4416 40.3751 96.6122 40.3751H102.868C107.039 40.3751 107.039 34.119 102.868 34.119H96.6122ZM184.124 34.119C179.953 34.119 179.953 40.3751 184.124 40.3751H190.374C194.544 40.3751 194.544 34.119 190.374 34.119H184.124ZM59.1246 35.2116C56.8268 35.2116 54.5779 35.8423 52.6183 37.0365C49.0484 39.2049 52.3018 44.5576 55.8715 42.3892C56.8518 41.7916 57.9739 41.468 59.1246 41.468C60.275 41.468 61.3979 41.7928 62.3778 42.3892C65.9466 44.5597 69.1997 39.2069 65.6309 37.0365C63.6714 35.8422 61.4224 35.2116 59.1246 35.2116V35.2116ZM149.792 43.4268C152.647 43.3914 154.043 46.8963 151.952 48.8407L146.63 54.163V65.3752H140.368V54.163L135.046 48.8407C133.019 46.89 134.4 43.4639 137.212 43.4635C138.056 43.4636 138.864 43.8048 139.452 44.4095L143.511 48.4684L147.546 44.4095C148.129 43.7895 148.94 43.4351 149.792 43.4268V43.4268ZM104.382 47.0401L98.9864 50.1772C95.4073 52.1068 98.3084 57.7049 102.099 55.5727L107.525 52.4599C110.279 50.9458 109.326 46.7707 106.188 46.6007C105.558 46.5653 104.924 46.7188 104.382 47.0401V47.0401ZM179.424 52.4601L184.844 55.5729C188.634 57.705 191.536 52.1069 187.957 50.1773L182.561 47.0402C182.019 46.7154 181.392 46.5619 180.761 46.6008C177.622 46.7708 176.67 50.9459 179.424 52.4601V52.4601ZM59.1246 46.6245C57.3982 46.6279 56.0057 48.026 56.0057 49.7494C56.0057 51.4729 57.3982 52.8711 59.1246 52.8744C60.8511 52.871 62.2435 51.4729 62.2435 49.7494C62.2435 48.026 60.8511 46.6278 59.1246 46.6245V46.6245ZM59.1246 65.3745C51.7309 66.18 46.95 67.6885 43.9392 70.4527C40.8637 73.276 38.9027 77.9129 37.7381 86.2058C37.3271 90.5052 30.8804 89.6303 31.543 85.4487C23.5042 86.3014 17.3512 87.505 13.8247 88.8056C16.8795 89.9832 22.1792 91.1011 29.4557 91.955C37.7486 92.9271 48.1049 93.4988 59.1246 93.4992C70.1445 93.4988 80.4946 92.9275 88.7875 91.955C96.064 91.1011 101.358 89.9832 104.412 88.8056C100.886 87.505 94.7389 86.3014 86.7001 85.4487C87.3627 89.6303 80.9161 90.5052 80.5051 86.2058C79.3406 77.9129 77.3794 73.276 74.3039 70.4527C71.2931 67.6885 66.5184 66.18 59.1246 65.3745ZM37.2498 98.9866V106.207C37.2498 118.133 46.9394 127.869 59.1246 127.869C71.31 127.869 80.9934 118.133 80.9934 106.207V98.9866C74.2922 99.4921 66.8954 99.7437 59.1246 99.7437C51.3539 99.7437 43.951 99.4921 37.2498 98.9866V98.9866ZM30.9877 99.6457C29.3938 99.9622 27.8749 101.794 27.8749 104.364C27.8749 106.989 29.5123 108.875 31.1586 109.106C31.0641 108.167 31.0003 107.172 31.0003 106.207L30.9877 99.6457ZM87.2436 106.207C87.2436 107.172 87.1846 108.167 87.0853 109.106C88.7315 108.875 90.369 106.989 90.369 104.364C90.369 101.794 88.85 99.9634 87.2559 99.6457L87.2436 106.207ZM49.7558 132.544V134.118C49.7558 139.366 53.9949 143.499 59.1246 143.499C64.2545 143.499 68.4874 139.366 68.4874 134.118V132.544C65.56 133.556 62.4167 134.118 59.1246 134.118C55.8326 134.118 52.6832 133.557 49.7558 132.544ZM37.2559 140.375V155.987H80.9811V140.375H73.4251C71.0298 145.878 65.5811 149.75 59.1246 149.75C52.6682 149.75 47.2134 145.878 44.8182 140.375H37.2559ZM31.006 140.991C16.7968 143.833 6 156.407 6 171.631V190.387C6 192.172 7.41294 193.5 9.11277 193.5H21.6127V165.381C21.6127 160.241 25.7809 155.987 31.006 155.987V140.991ZM87.2311 155.987C92.456 155.987 96.6243 160.241 96.6243 165.381V193.5H103.405C103.059 192.52 102.874 191.48 102.874 190.375C102.874 187.608 104.055 185.146 105.926 183.441L103.13 149.524C98.8722 145.224 93.3704 142.219 87.2309 140.991L87.2311 155.987ZM109.13 146.368L112.005 181C112.088 180.998 112.154 181 112.237 181H177.867C177.938 181 178.016 181.023 178.087 181.023L180.986 146.367C181.109 144.893 179.624 143.499 177.849 143.499L112.243 143.503C110.468 143.506 109.007 144.894 109.13 146.368V146.368ZM143.493 152.887C148.707 152.887 152.862 157.109 152.862 162.25C152.862 167.39 148.707 171.637 143.493 171.637C138.279 171.637 134.112 167.39 134.112 162.25C134.112 157.109 138.279 152.887 143.493 152.887ZM143.493 159.137C141.803 159.137 140.362 160.487 140.362 162.25C140.362 164.012 141.779 165.387 143.493 165.387C145.207 165.387 146.612 164.012 146.612 162.25C146.612 160.487 145.182 159.137 143.493 159.137ZM31.006 162.243C29.294 162.243 27.8626 163.595 27.8626 165.381V193.5H90.3743V165.381C90.3743 163.595 88.9431 162.243 87.2311 162.243H31.006ZM112.237 187.25C110.452 187.249 109.118 188.675 109.118 190.375C109.118 192.074 110.452 193.5 112.237 193.5H177.868C179.653 193.5 180.986 192.074 180.986 190.375C180.986 188.675 179.653 187.249 177.868 187.25H112.237Z" fill="white"/>
</svg>
