<svg width="200" height="200" viewBox="0 0 200 200" fill="none" xmlns="http://www.w3.org/2000/svg">
<path d="M137.717 17.7265L125.571 29.8485L137.199 41.5004L149.345 29.3546C150.561 28.1393 150.56 26.2555 149.345 25.0401L142.014 17.7265C140.689 16.6417 139.204 16.529 137.717 17.7265ZM60.3906 33.8535C58.6718 33.8535 57.3557 35.1698 57.3557 36.8885V46.0231H84.7716H100.786L112.955 33.8535H103.059H60.3906ZM153.463 33.8535L141.294 46.0231H148.762H191.406V36.8885C191.406 35.1698 190.09 33.8535 188.371 33.8535H163.99H153.463ZM121.275 34.169L83.0399 72.3619L94.6918 84.0138L132.903 45.7968L121.275 34.169ZM66.4784 36.8885C68.1635 36.8818 69.5339 38.2443 69.5372 39.9292C69.5433 41.6214 68.1705 42.9947 66.4784 42.988C64.7957 42.9814 63.4369 41.612 63.4435 39.9292C63.4465 38.2535 64.8027 36.8951 66.4784 36.8885ZM78.6659 36.8885C80.351 36.8818 81.7214 38.2443 81.7247 39.9292C81.7308 41.6214 80.358 42.9947 78.6659 42.988C76.9832 42.9814 75.6244 41.612 75.631 39.9292C75.634 38.2535 76.9902 36.8951 78.6659 36.8885ZM90.8534 36.8885C92.5385 36.8818 93.9089 38.2443 93.9122 39.9292C93.9183 41.6214 92.5455 42.9947 90.8534 42.988C89.1707 42.9814 87.8119 41.612 87.8185 39.9292C87.8215 38.2535 89.1776 36.8951 90.8534 36.8885ZM57.3557 52.1169V137.429C57.3557 139.148 58.6718 140.488 60.3906 140.488H188.371C190.09 140.488 191.406 139.148 191.406 137.429V52.1169H148.762H135.194L96.9591 90.3514C96.6822 90.7501 96.1719 90.8962 95.7986 91.1549L76.4938 99.7542C73.7167 100.991 70.6173 100.174 68.7576 98.3146C66.8979 96.4549 66.0815 93.3553 67.3175 90.5783L75.9523 71.1246C76.1292 70.7339 76.3869 70.3849 76.708 70.1008L94.6917 52.1172H84.7716L57.3557 52.1169ZM17.7463 64.3103C12.7341 64.3102 8.59378 68.4505 8.59375 73.4627V82.5915H51.2619V64.3103H17.7463ZM23.8222 73.451C25.5049 73.4443 26.8744 74.803 26.881 76.4858C26.8871 78.1778 25.5142 79.5514 23.8222 79.5446C22.1395 79.538 20.7806 78.1685 20.7872 76.4858C20.7933 74.8124 22.1487 73.4574 23.8222 73.451ZM36.0097 73.451C37.6924 73.4443 39.0619 74.803 39.0685 76.4858C39.0746 78.1778 37.7017 79.5514 36.0097 79.5446C34.327 79.538 32.9681 78.1685 32.9747 76.4858C32.9808 74.8124 34.3362 73.4574 36.0097 73.451ZM130.475 73.4597H136.568C139.898 73.4597 142.668 76.2241 142.668 79.5535H167.049C167.049 76.2241 169.813 73.4597 173.143 73.4597H179.237C182.566 73.4597 185.312 76.2241 185.312 79.5535V85.6293C185.312 88.9587 182.566 91.7231 179.237 91.7231V116.104C182.566 116.104 185.312 118.869 185.312 122.198V128.292C185.312 131.621 182.566 134.391 179.237 134.391H173.143C169.814 134.391 167.049 131.621 167.049 128.292H142.668C142.668 131.621 139.898 134.391 136.568 134.391H130.475C127.145 134.391 124.381 131.621 124.381 128.292V122.198C124.381 118.869 127.145 116.104 130.475 116.104V91.7231C127.145 91.7231 124.381 88.9586 124.381 85.6293V79.5535C124.381 76.2241 127.145 73.4597 130.475 73.4597ZM79.7312 77.6672L72.8757 93.0502C72.6581 93.5383 72.7916 93.7342 73.0543 93.9969C73.3172 94.2573 73.5116 94.3929 74.0005 94.1758L89.3837 87.3145L79.7312 77.6672ZM130.475 79.5535V85.6293H136.568V79.5535H130.475ZM173.143 79.5535V85.6293H179.237V79.5535H173.143ZM142.668 85.6293C142.668 88.9587 139.898 91.7231 136.568 91.7231V116.104C139.898 116.104 142.668 118.869 142.668 122.198H167.049C167.049 118.869 169.813 116.104 173.143 116.104V91.7231C169.813 91.7231 167.049 88.9587 167.049 85.6293H142.668ZM8.59375 88.6884V173.995C8.59378 179.007 12.7341 183.13 17.7463 183.13H145.703C150.715 183.13 154.856 179.007 154.856 173.995V146.579H60.3906C55.3785 146.579 51.2619 142.439 51.2619 137.426V128.292H48.2031H29.9397C24.9276 128.292 20.7813 124.175 20.7813 119.163V103.911C20.7813 98.8986 24.9276 94.7822 29.9397 94.7822H48.2031H51.2619V88.6884H8.59375ZM154.856 91.7234C161.551 91.7234 167.049 97.2159 167.049 103.911C167.049 110.606 161.551 116.104 154.856 116.104C148.161 116.104 142.668 110.606 142.668 103.911C142.668 97.2159 148.161 91.7234 154.856 91.7234ZM154.856 97.8172C151.454 97.8171 148.762 100.509 148.762 103.911C148.762 107.312 151.454 110.011 154.856 110.011C158.257 110.011 160.949 107.312 160.949 103.911C160.949 100.509 158.257 97.8171 154.856 97.8172ZM29.9397 100.879C28.2209 100.879 26.881 102.195 26.881 103.914V119.166C26.881 120.885 28.2209 122.201 29.9397 122.201H48.2031C49.9219 122.201 51.2619 120.885 51.2619 119.166V103.914C51.2619 102.195 49.9219 100.879 48.2031 100.879H29.9397ZM84.7716 103.914H109.153C110.835 103.92 112.194 105.29 112.187 106.973C112.184 108.648 110.828 110.007 109.153 110.014H84.7716C83.0958 110.007 81.7399 108.648 81.7366 106.973C81.7305 105.29 83.0888 103.92 84.7716 103.914ZM66.4844 116.107H109.153C110.835 116.114 112.194 117.483 112.187 119.166C112.181 120.839 110.826 122.194 109.153 122.201H66.4844C64.8109 122.195 63.4559 120.839 63.4494 119.166C63.4433 117.483 64.8016 116.114 66.4844 116.107ZM130.475 122.201V128.295H136.568V122.201H130.475ZM173.143 122.201V128.295H179.237V122.201H173.143ZM66.4844 128.295H109.153C110.828 128.302 112.184 129.66 112.187 131.336C112.194 133.018 110.835 134.388 109.153 134.394H66.4844C64.8016 134.388 63.4428 133.018 63.4494 131.336C63.4525 129.66 64.8086 128.301 66.4844 128.295ZM32.9747 134.394C39.6696 134.394 45.1622 139.887 45.1622 146.582V158.775C45.1622 165.47 39.6696 170.963 32.9747 170.963C26.2798 170.963 20.7813 165.47 20.7813 158.775V146.582C20.7813 139.887 26.2798 134.394 32.9747 134.394ZM32.9747 140.488C29.5731 140.488 26.881 143.18 26.881 146.582V158.775C26.881 162.177 29.5731 164.869 32.9747 164.869C36.3763 164.869 39.0685 162.177 39.0685 158.775V146.582C39.0685 143.18 36.3763 140.488 32.9747 140.488ZM109.153 152.676H112.187C113.873 152.669 115.243 154.031 115.246 155.717C115.252 157.409 113.88 158.782 112.187 158.775H109.153C107.46 158.782 106.087 157.409 106.094 155.717C106.097 154.031 107.467 152.669 109.153 152.676ZM127.44 152.676H130.475C132.16 152.669 133.53 154.031 133.533 155.717C133.54 157.409 132.167 158.782 130.475 158.775H127.44C125.748 158.782 124.374 157.409 124.381 155.717C124.384 154.031 125.755 152.669 127.44 152.676ZM54.2969 164.869H96.965C98.6385 164.875 99.9935 166.231 100 167.904C100.006 169.587 98.6478 170.956 96.965 170.963H54.2969C52.6141 170.956 51.2553 169.587 51.2619 167.904C51.268 166.231 52.6234 164.876 54.2969 164.869ZM109.153 164.869H115.246C116.922 164.872 118.281 166.228 118.287 167.904C118.293 169.589 116.931 170.96 115.246 170.963H109.153C107.46 170.97 106.087 169.596 106.094 167.904C106.1 166.221 107.47 164.862 109.153 164.869ZM127.44 164.869H139.609C141.292 164.862 142.662 166.221 142.668 167.904C142.674 169.596 141.301 170.969 139.609 170.963H127.44C125.748 170.97 124.374 169.596 124.381 167.904C124.387 166.221 125.757 164.862 127.44 164.869Z" fill="white"/>
</svg>
