<svg width="200" height="200" viewBox="0 0 200 200" fill="none" xmlns="http://www.w3.org/2000/svg">
<path d="M162.084 108.059C160.803 107.527 161.428 105.84 161.834 103.621C162.24 101.402 160.022 97.7774 158.178 94.7774C156.334 91.7774 151.022 90.2149 147.24 88.9024C142.759 87.8372 138.101 87.752 133.584 88.6524C128.615 89.3086 128.49 87.4961 120.303 86.0586C113.754 85.4158 107.151 86.493 101.147 89.1836C100.49 89.6836 96.4592 83.1837 91.5217 81.6212C86.5842 80.0587 74.2092 84.7461 71.7405 85.5274C69.2717 86.3086 71.7405 85.5274 65.4905 85.2774C59.2405 85.0274 54.428 87.3399 50.8967 95.4336C47.3655 103.527 52.7092 104.277 52.7092 104.277C49.663 103.902 46.5711 104.3 43.7198 105.437C40.8685 106.573 38.3498 108.41 36.3967 110.777C32.3655 114.59 31.2092 127.09 32.0842 134.715C32.9592 142.34 34.5217 149.277 41.9592 155.121C45.1895 157.75 48.9393 159.666 52.9625 160.743C56.9857 161.82 61.1912 162.034 65.303 161.371C73.7717 160.402 75.6467 154.934 75.8342 154.246C76.0217 153.559 77.3967 153.652 78.0842 154.434C80.062 157.001 82.5523 159.13 85.3967 160.684C89.8967 163.121 101.022 158.652 103.084 158.434C105.147 158.215 108.959 162.965 112.803 163.871C116.523 164.148 120.253 163.482 123.647 161.934C125.397 161.246 126.084 164.09 127.178 168.184C128 171.917 128.522 175.711 128.74 179.527C128.807 179.795 128.936 180.044 129.117 180.253C129.298 180.461 129.526 180.624 129.782 180.728C130.038 180.831 130.315 180.873 130.59 180.849C130.866 180.825 131.131 180.736 131.365 180.59C132.74 179.809 132.74 177.746 132.553 172.871C132.532 168.014 131.466 163.218 129.428 158.809C128.713 158.024 127.81 157.434 126.804 157.095C125.798 156.756 124.722 156.679 123.678 156.871C122.803 157.059 120.553 144.934 120.553 144.652C120.553 144.371 118.209 144.652 118.115 145.027C118.022 145.402 121.74 156.965 121.928 157.34C122.115 157.715 119.272 158.434 118.803 158.434C118.334 158.434 115.209 144.652 115.209 144.215C115.209 143.777 113.272 144.215 113.053 144.527C112.834 144.84 116.865 158.371 116.959 158.965C117.053 159.559 112.772 158.59 111.897 157.902C111.022 157.215 108.959 145.121 108.428 144.215C107.897 143.309 105.772 143.621 105.49 144.027C105.209 144.434 109.115 156.027 108.897 156.527C108.678 157.027 104.803 153.777 104.428 153.402C104.147 151.92 104.074 150.405 104.209 148.902C103.573 147.382 102.755 145.944 101.772 144.621C101.397 144.215 100.897 144.434 100.209 145.215C99.5217 145.996 101.772 148.34 101.959 148.809C102.179 150.392 102.253 151.993 102.178 153.59C100.112 153.922 98.0165 154.027 95.928 153.902C95.1467 153.902 94.7405 150.777 94.4592 149.684C94.178 148.59 93.178 148.621 92.303 149.402C91.428 150.184 93.678 154.777 93.678 154.777C91.7933 155.273 89.8127 155.273 87.928 154.777C86.3979 154.272 85.051 153.326 84.056 152.059C83.061 150.792 82.462 149.259 82.3342 147.652C81.3655 142.684 85.4592 135.34 85.8655 134.184C86.2717 133.027 83.7092 132.715 83.0217 132.715C82.3342 132.715 80.1155 138.465 78.428 138.277C76.7405 138.09 76.303 132.996 75.6155 132.621C74.928 132.246 71.7092 132.621 71.3967 134.09C71.0842 135.559 74.1467 144.027 74.053 145.809C73.9592 147.59 73.7405 148.621 73.0842 149.121C72.428 149.621 65.2717 135.934 65.2717 135.934C64.982 135.852 64.6739 135.866 64.3927 135.973C64.1114 136.08 63.8719 136.274 63.7092 136.527C63.2092 137.402 71.7092 149.996 71.803 150.496C71.8967 150.996 70.1467 153.621 69.3655 153.621C68.5842 153.621 63.1155 144.434 62.7092 143.746C62.303 143.059 61.053 144.152 60.678 144.621C62.6399 148.233 64.9198 151.664 67.4905 154.871C68.178 155.652 65.928 156.152 65.053 156.152C62.4822 153.722 60.1967 151.006 58.2405 148.059C57.6467 147.152 56.8655 148.059 56.4592 148.527C57.9159 151.459 59.6532 154.243 61.6467 156.84H61.1467C58.2317 156.775 55.3607 156.115 52.7092 154.902C47.4592 152.652 42.2717 149.152 40.7092 145.809C38.2906 139.304 37.1139 132.403 37.2405 125.465C37.6155 118.34 39.3655 113.559 43.4905 111.121C47.3242 109.063 51.5123 107.749 55.8342 107.246C58.178 106.965 58.9592 105.777 58.7717 104.402C57.8641 102.309 57.2034 100.117 56.803 97.8711C56.803 95.3399 62.2717 90.3399 63.553 89.9649C64.8342 89.5899 69.803 91.2149 74.4905 90.5586C79.478 89.3385 84.4009 87.8679 89.2405 86.1524C90.8967 85.8712 97.3342 91.8086 97.3342 92.4024C97.3342 92.9961 96.3655 93.3712 95.9905 93.7774C94.7861 95.383 94.1289 97.3328 94.1155 99.3399C93.6467 103.246 94.428 106.559 96.2717 107.527C97.0912 108.132 98.0618 108.499 99.0763 108.587C100.091 108.675 101.11 108.481 102.022 108.027C104.084 106.84 102.522 105.277 101.24 104.902C99.9592 104.527 99.303 104.496 98.7092 102.152C98.4798 100.637 98.6838 99.0874 99.2976 97.6828C99.9114 96.2783 100.91 95.076 102.178 94.2149C106.697 91.9283 111.65 90.6287 116.709 90.4024C122.584 90.0587 130.834 94.2149 133.428 94.2149C136.022 94.2149 142.022 93.2462 143.678 93.2462C145.334 93.2462 146.303 94.2149 148.272 95.0899C150.586 95.6255 152.628 96.9795 154.022 98.9024C157.553 102.621 156.272 109.059 156.084 109.746C155.31 110.898 154.227 111.808 152.959 112.371C151.692 113.269 150.784 114.586 150.397 116.09C148.755 116.798 147.063 117.383 145.334 117.84C143.49 118.246 138.303 117.84 137.24 117.84C136.178 117.84 135.959 119.996 136.147 120.965C136.334 121.934 139.272 122.152 140.459 122.246C141.647 122.34 140.928 124.184 140.459 125.965C139.99 127.746 141.428 127.527 142.584 127.527C143.74 127.527 146.897 124.402 153.74 119.496C160.584 114.59 160.678 114.152 161.647 113.652C163.202 113.507 164.765 113.838 166.127 114.603C167.489 115.368 168.586 116.53 169.272 117.934C170.545 120.906 170.678 124.244 169.647 127.309C169.365 127.59 164.178 120.652 163.678 120.277C163.178 119.902 162.615 120.277 162.428 121.152C164.416 124.156 166.598 127.026 168.959 129.746C168.816 131.399 168.393 133.016 167.709 134.527C167.209 135.309 161.459 127.59 161.147 126.996C160.834 126.402 160.084 127.777 159.897 128.277C162.121 131.32 164.532 134.221 167.115 136.965L165.553 141.934C165.553 142.246 158.334 131.777 157.928 131.402C157.522 131.027 155.678 131.871 155.584 132.465C155.49 133.059 163.678 142.027 163.99 143.309C164.303 144.59 162.115 146.246 161.24 146.152C158.842 143.911 156.656 141.452 154.709 138.809C154.115 138.121 152.365 139.496 152.084 139.902C151.803 140.309 159.209 147.402 159.772 148.277C160.334 149.152 158.428 150.527 158.022 150.527C157.615 150.527 151.303 143.027 150.803 142.434C150.303 141.84 149.147 142.715 148.834 143.59C148.522 144.465 156.459 152.309 156.459 152.309C156.71 153.07 156.71 153.891 156.459 154.652C156.223 154.995 155.918 155.283 155.562 155.499C155.207 155.714 154.809 155.852 154.397 155.902C153.74 155.902 147.178 147.121 146.584 146.934C145.99 146.746 145.022 147.715 145.24 148.59C147.559 151.451 150.053 154.164 152.709 156.715C151.331 158.371 150.424 160.368 150.084 162.496C149.9 165.285 150.623 168.059 152.147 170.402C152.709 171.277 155.084 170.621 156.147 169.715C157.209 168.809 155.24 162.934 156.147 160.84C157.053 158.746 158.74 158.902 161.084 157.215C163.428 155.527 162.24 154.09 163.178 151.746C164.115 149.402 164.084 150.309 166.303 148.621C168.522 146.934 169.147 145.871 172.553 135.965C175.959 126.059 175.678 119.184 173.584 114.09C171.49 108.996 163.334 108.59 162.084 108.059ZM46.803 121.309C45.6155 122.277 44.553 126.871 45.2405 131.652C45.3631 133.045 45.8226 134.388 46.5793 135.563C47.336 136.739 48.3673 137.714 49.5842 138.402C49.8967 138.402 50.9592 137.809 50.7717 136.934C50.5842 136.059 49.803 136.934 48.3342 133.402C46.8655 129.871 48.3342 123.371 48.3342 122.59C48.3342 121.809 47.2405 120.934 46.803 121.309ZM67.0217 96.3086C66.1578 98.0323 65.7992 99.9651 65.9872 101.884C66.1752 103.803 66.9022 105.629 68.0842 107.152C69.4997 108.73 71.4464 109.731 73.553 109.965C74.428 109.777 74.428 109.402 73.7405 109.09C73.053 108.777 72.8655 108.715 70.1467 106.371C67.428 104.027 68.178 98.5586 68.5842 97.5586C68.9905 96.5586 67.3342 95.3711 67.0217 96.2149V96.3086ZM94.6467 121.309C92.9713 121.285 91.3282 120.845 89.8655 120.027C87.5217 118.871 83.6155 115.746 81.553 115.934C78.9727 116.742 76.6964 118.311 75.0217 120.434C75.0217 120.996 75.9905 121.684 76.678 121.684C77.3655 121.684 77.6467 121.496 78.2405 120.715C78.8594 120.031 79.6103 119.479 80.4481 119.092C81.2859 118.705 82.1932 118.492 83.1155 118.465C86.3002 119.513 89.352 120.929 92.2092 122.684C92.6381 122.87 93.1009 122.967 93.5686 122.967C94.0363 122.967 94.4991 122.87 94.928 122.684C95.8342 122.34 95.5217 121.215 94.6467 121.215V121.309ZM97.3967 135.371C99.0545 134.041 101.115 133.314 103.24 133.309C105.209 133.309 111.647 138.184 112.615 139.09C113.584 139.996 113.709 138.684 114.272 138.09C114.834 137.496 114.272 137.402 110.772 135.746C107.272 134.09 104.522 130.684 102.272 130.684C99.6141 131.368 97.187 132.749 95.2405 134.684C95.2405 135.465 96.2092 136.434 97.3967 135.277V135.371ZM132.553 129.809C133.209 129.121 132.834 128.027 129.99 126.371C125.87 124.101 121.524 122.268 117.022 120.902C113.022 119.84 112.584 117.215 112.022 117.402C111.459 117.59 110.772 119.34 110.772 119.34C110.772 119.34 110.272 121.309 113.49 122.684C117.679 124.292 121.957 125.659 126.303 126.777C130.397 127.746 131.865 130.402 132.553 129.715V129.809ZM133.115 144.84C132.647 145.027 131.772 144.84 131.772 145.621C131.772 146.402 133.428 147.277 135.459 149.246C137.49 151.215 136.24 155.277 136.147 155.684C136.053 156.09 136.459 156.152 137.428 155.496C138.397 154.84 138.303 153.34 137.428 150.496C136.553 147.652 134.115 144.215 133.115 144.746V144.84ZM117.49 97.7774C120.334 95.9024 121.115 98.3399 121.803 98.4649C122.49 98.5899 121.803 98.4649 122.084 97.3711C122.365 96.2774 120.428 94.6524 119.365 94.4336C118.303 94.2149 117.209 95.6211 115.647 96.5899C114.084 97.5586 113.115 97.7774 112.022 98.4649C111.359 98.8034 110.791 99.2998 110.365 99.9102C109.94 100.521 109.672 101.226 109.584 101.965C109.575 102.574 109.761 103.169 110.115 103.664C110.47 104.159 110.974 104.528 111.553 104.715C112.803 104.402 111.553 102.559 112.022 101.371C112.49 100.184 114.584 99.5274 117.397 97.6837L117.49 97.7774ZM141.803 111.34C142.584 111.527 143.084 110.84 144.24 108.902C144.632 108.366 144.897 107.748 145.016 107.094C145.135 106.441 145.105 105.769 144.928 105.129C144.75 104.488 144.431 103.897 143.992 103.397C143.554 102.898 143.009 102.505 142.397 102.246C141.403 101.772 140.302 101.568 139.204 101.656C138.107 101.744 137.052 102.12 136.147 102.746C135.553 103.434 136.772 104.434 137.522 104.215C141.022 103.246 142.303 104.715 142.49 106.371C142.678 108.027 140.928 109.871 140.553 110.371C140.178 110.871 140.928 111.059 141.709 111.246L141.803 111.34ZM132.428 82.8399C134.772 83.1212 142.584 73.9337 143.178 73.1524C143.772 72.3712 139.772 71.3087 138.897 71.1212C138.022 70.9337 150.303 53.3399 150.022 50.9962C149.74 48.6524 143.772 49.4337 142.49 49.0274C141.209 48.6212 147.084 32.5274 147.584 30.4962C148.084 28.4649 138.022 28.5899 136.834 28.8399C135.647 29.0899 129.209 54.6212 129.428 56.1837C129.647 57.7462 135.084 58.0274 136.053 58.1212C137.022 58.2149 132.928 69.1524 132.928 69.1524C132.928 69.1524 130.959 68.7774 129.209 68.5587C127.459 68.3399 128.334 72.6837 129.397 76.8712C129.822 79.0798 130.875 81.1193 132.428 82.7462V82.8399ZM189.678 35.9649C188.9 34.1013 187.603 32.5007 185.94 31.3537C184.278 30.2068 182.321 29.562 180.303 29.4962C179.879 29.5552 179.487 29.7527 179.188 30.058C178.888 30.3632 178.698 30.759 178.647 31.1837C178.647 31.5587 179.209 31.6524 180.303 31.5587C181.281 31.5645 182.245 31.8 183.115 32.2462C185.738 34.2214 187.797 36.8507 189.084 39.8712C189.296 41.0203 189.148 42.2066 188.662 43.269C188.175 44.3313 187.374 45.2181 186.365 45.8087C184.99 46.2149 185.272 45.4337 184.803 44.4649C183.543 42.0856 181.771 40.0151 179.615 38.4024C179.062 37.9715 178.428 37.6566 177.75 37.4764C177.072 37.2962 176.365 37.2545 175.671 37.3537C174.977 37.4528 174.31 37.6909 173.71 38.0536C173.109 38.4164 172.588 38.8964 172.178 39.4649C171.615 41.0274 172.865 43.7774 176.397 46.8087C178.298 48.4868 180.708 49.4773 183.24 49.6212C183.699 51.6777 183.992 53.7677 184.115 55.8712C184.103 56.0717 184.036 56.265 183.92 56.4297C183.805 56.5945 183.647 56.7244 183.463 56.8051C183.279 56.8858 183.076 56.9143 182.877 56.8873C182.678 56.8604 182.49 56.7791 182.334 56.6524C181.365 56.0899 181.272 54.8087 180.584 52.8399C179.897 50.8712 173.084 49.9337 170.522 51.6837C167.959 53.4337 169.959 56.7462 173.178 58.2149C175.129 59.1179 177.304 59.4224 179.428 59.0899C179.709 59.0899 180.397 59.7774 180.49 61.1524C180.584 62.5274 179.615 64.2774 178.834 64.2774C178.053 64.2774 178.147 62.9024 174.74 60.8712C171.334 58.8399 165.74 58.6212 164.584 60.0899C163.428 61.5587 164.772 64.0899 167.99 66.3399C170.635 67.9308 173.688 68.713 176.772 68.5899C177.553 68.5899 177.178 70.3399 176.397 72.5899C176.183 73.4869 175.705 74.2994 175.026 74.9231C174.346 75.5468 173.496 75.9531 172.584 76.0899C171.209 76.0899 167.303 71.4962 166.022 71.1212C164.74 70.7462 162.615 72.7774 163.49 74.6212C164.365 76.4649 168.959 78.0587 169.553 78.5274C170.179 79.3076 170.52 80.2774 170.522 81.2774C170.522 82.3399 169.74 84.2149 166.803 85.2774C163.865 86.3399 162.897 84.3087 162.24 83.0274C162.039 82.7564 161.754 82.5594 161.429 82.4672C161.105 82.3749 160.759 82.3926 160.445 82.5173C160.131 82.642 159.868 82.8669 159.695 83.157C159.523 83.447 159.451 83.786 159.49 84.1212C159.533 85.1857 159.932 86.205 160.623 87.0155C161.315 87.826 162.258 88.3805 163.303 88.5899C164.742 88.9263 166.243 88.8966 167.668 88.5036C169.092 88.1105 170.396 87.3666 171.459 86.3399C172.271 85.36 172.859 84.2149 173.183 82.9844C173.507 81.7538 173.559 80.4674 173.334 79.2149C175.001 78.4365 176.523 77.3797 177.834 76.0899C180.647 73.5587 179.584 68.2774 179.584 68.2774C180.563 67.1686 181.471 65.9996 182.303 64.7774C182.899 64.1081 183.313 63.2965 183.505 62.4207C183.696 61.5449 183.659 60.6346 183.397 59.7774C184.191 59.5954 184.94 59.2518 185.596 58.7679C186.252 58.284 186.801 57.6703 187.209 56.9649C188.459 54.6212 186.428 48.1524 186.428 48.1524C187.584 47.9003 188.658 47.3631 189.553 46.5899C191.022 45.3399 192.584 41.9024 189.678 35.9649ZM182.834 46.2149C181.865 48.4649 175.99 43.2774 176.584 40.6524C176.647 39.6837 183.959 43.9649 182.834 46.2149ZM178.928 57.4337C177.865 57.7462 172.678 56.9649 172.959 53.6212C172.959 52.7774 177.365 53.4337 178.428 54.3087C179.49 55.1837 179.99 57.1524 178.928 57.4337ZM174.834 66.9962C172.959 66.8087 167.209 64.1837 169.272 62.1212C170.24 61.1212 173.553 62.7149 175.022 63.9962C176.49 65.2774 176.678 67.2149 174.834 66.9962ZM41.803 62.3087C42.8967 62.3087 46.2092 58.9962 46.2092 58.9962C46.2092 58.9962 50.5217 68.3712 50.7092 69.0587C50.8967 69.7462 46.9905 71.9024 46.1155 72.6837C45.2405 73.4649 57.8342 80.2774 58.6155 79.8087C59.9966 74.7897 60.9068 69.6529 61.3342 64.4649C59.5516 64.844 57.8421 65.5088 56.2717 66.4337C55.678 66.8087 50.5217 45.5274 49.2405 45.2462C47.9592 44.9649 42.4905 49.5274 42.2092 50.1212C41.928 50.7149 34.678 33.1212 33.428 32.2462C32.178 31.3712 23.7092 38.0274 24.053 38.6837C24.5842 39.8712 40.7405 62.3087 41.803 62.3087ZM72.7717 25.8087C75.1583 25.1304 77.4799 24.2415 79.7092 23.1524C81.5682 22.4484 83.562 22.1727 85.5422 22.3458C87.5225 22.519 89.4381 23.1365 91.1467 24.1524C92.3967 25.4962 91.1467 29.0274 91.1467 29.0274H88.5842C86.6467 29.0274 85.2717 29.6212 80.2092 32.4337C75.1467 35.2462 74.5842 38.4024 75.803 39.5587C77.0217 40.7149 79.7092 41.3399 85.8655 38.8712C92.0217 36.4024 92.1155 31.9649 92.1155 31.9649C92.8421 33.2129 93.2599 34.6165 93.3342 36.0587C93.2997 37.3784 92.8145 38.6466 91.9592 39.6524C91.7717 40.1524 89.1467 39.9649 87.3967 40.1524C84.891 40.7953 82.5345 41.9204 80.4592 43.4649C77.3342 45.4337 76.3342 48.0587 77.3342 48.7462C78.3342 49.4337 79.9592 48.7462 84.6467 48.0587C89.3342 47.3712 91.8655 43.3712 92.553 43.3712C93.4017 43.6129 94.1414 44.1393 94.6479 44.862C95.1543 45.5847 95.3967 46.4596 95.3342 47.3399C95.3639 48.2895 95.1767 49.2334 94.7868 50.0998C94.3969 50.9662 93.8146 51.7323 93.0842 52.3399C92.803 52.3399 92.3967 52.3399 90.7405 52.8087C87.6107 53.6579 84.6434 55.0202 81.9592 56.8399C79.428 58.7774 79.0217 61.3087 80.9905 61.9962C82.3498 62.4288 83.7876 62.5579 85.2022 62.3743C86.6169 62.1907 87.9741 61.6989 89.178 60.9337C91.668 59.6196 93.6558 57.5219 94.8342 54.9649C94.8342 54.9649 98.4592 55.3712 99.5217 57.8087C100.584 60.2462 100.209 62.5899 96.6155 66.7774C93.2784 69.8909 89.3151 72.2562 84.9905 73.7149C84.9905 73.7149 84.9905 75.1837 85.9592 75.5899C86.928 75.9962 90.2405 74.4962 94.553 71.5587C96.747 70.3655 98.6429 68.6917 100.099 66.6623C101.554 64.6329 102.532 62.3006 102.959 59.8399C103.24 54.7774 96.4905 52.8087 96.4905 52.8087C97.65 50.8027 98.384 48.5794 98.6467 46.2774C99.1467 42.3712 94.053 40.6212 94.053 40.6212C95.0475 38.9969 95.6171 37.1485 95.7092 35.2462C95.7074 34.2665 95.4943 33.2987 95.0844 32.4089C94.6745 31.519 94.0776 30.7281 93.3342 30.0899C94.2479 28.5603 94.7236 26.809 94.7092 25.0274C94.303 22.9649 93.053 21.0274 86.803 20.1212C81.6244 19.5801 76.4193 20.8621 72.0842 23.7462C71.4592 24.5274 71.9905 25.8087 72.7717 25.8087ZM84.303 37.0274C81.7717 37.9962 81.178 38.3087 79.9905 37.6212C78.803 36.9337 82.428 33.7149 84.7717 32.4337C87.1155 31.1524 88.303 30.9649 88.9905 31.8399C89.678 32.7149 86.8342 36.0587 84.303 37.0274ZM88.303 43.0899C87.3328 44.5275 85.9326 45.6214 84.303 46.2149C82.928 46.5899 81.178 46.9962 81.178 46.0274C82.4838 44.8291 83.9199 43.7808 85.4592 42.9024C86.6467 42.2149 88.8967 41.9024 88.303 43.0899ZM90.4592 56.9649C89.178 58.0274 84.2092 60.0899 83.5217 59.4962C83.2405 59.2462 85.678 57.1524 87.6155 56.3712C89.553 55.5899 91.7092 55.8712 90.4592 56.9649ZM32.3342 79.9024C32.3342 79.9024 32.928 75.7149 33.1155 71.0274C33.303 66.3399 25.303 67.2149 25.303 67.2149C25.8536 65.8583 26.1909 64.4247 26.303 62.9649C26.678 59.4962 21.4592 57.7462 21.4592 57.7462V56.4649C21.4592 55.1837 20.678 53.0587 17.0842 51.9649C14.7334 51.3793 12.2472 51.7265 10.1467 52.9337C9.96448 53.1184 9.82731 53.3428 9.74588 53.5892C9.66446 53.8356 9.64097 54.0975 9.67725 54.3545C9.71353 54.6115 9.8086 54.8567 9.95507 55.0709C10.1015 55.2852 10.2955 55.4628 10.5217 55.5899C11.6155 55.9649 13.9592 54.1212 16.7717 54.2149C19.5842 54.3087 18.3342 57.9337 18.3342 57.9337L16.7717 58.5274C13.4872 59.9149 10.5754 62.0559 8.27173 64.7774C6.92798 67.2149 10.8342 67.1212 14.1467 66.1212C17.4592 65.1212 19.9905 60.1837 19.9905 60.1837C20.9814 60.6018 21.9075 61.1595 22.7405 61.8399C22.9234 63.9192 22.9234 66.0106 22.7405 68.0899C19.2819 69.1372 15.9493 70.5625 12.803 72.3399C8.02173 75.1837 7.92798 78.5899 8.52173 79.6837C9.11548 80.7774 11.6467 82.0274 17.1155 79.6837C18.8465 78.6841 20.3495 77.3338 21.528 75.7193C22.7066 74.1049 23.5347 72.2619 23.9592 70.3087C24.8812 70.02 25.8206 69.7904 26.7717 69.6211C27.5573 69.498 28.3612 69.6562 29.0415 70.0678C29.7219 70.4795 30.235 71.1181 30.4905 71.8712C31.2717 74.1212 28.7405 79.4962 28.7405 79.4962C25.1824 81.0317 21.8073 82.9603 18.678 85.2461C16.2405 87.5899 17.803 89.3399 20.053 90.2149C22.303 91.0899 23.178 89.6524 26.303 87.7774C28.2042 86.4808 29.5873 84.5555 30.2092 82.3399C31.5798 82.2142 32.9593 82.4513 34.2092 83.0274C35.2717 83.9024 35.0842 85.5587 33.1155 88.7774C31.0767 91.6123 28.752 94.2303 26.178 96.5899C25.803 97.0899 26.678 98.3712 27.9592 98.4649C29.2405 98.5587 28.428 98.4649 30.4905 96.2149C32.553 93.9649 36.7405 87.0274 36.928 83.9024C37.1155 80.7774 32.3342 79.9024 32.3342 79.9024ZM17.2092 76.7774C14.8655 78.2462 13.4905 78.7462 12.428 77.6524C11.3655 76.5587 12.1155 74.8399 15.2405 73.1524C18.3655 71.4649 19.3655 70.9337 20.053 71.4962C20.7405 72.0587 19.553 75.4649 17.2092 76.8712V76.7774ZM23.9592 87.0274C21.9905 87.9024 22.178 87.9024 21.3967 87.4336C21.1467 87.2461 21.0217 85.9649 22.4905 84.8712C23.9592 83.7774 25.9905 82.6212 26.303 83.2149C26.3411 84.0124 26.1379 84.8028 25.7197 85.483C25.3016 86.1632 24.6881 86.7014 23.9592 87.0274Z" fill="white"/>
</svg>
