<svg width="200" height="200" viewBox="0 0 200 200" fill="none" xmlns="http://www.w3.org/2000/svg">
<path d="M31.0999 55.8C32.9409 55.8 34.4333 54.3076 34.4333 52.4667C34.4333 50.6257 32.9409 49.1333 31.0999 49.1333C29.259 49.1333 27.7666 50.6257 27.7666 52.4667C27.7666 54.3076 29.259 55.8 31.0999 55.8Z" fill="white"/>
<path d="M53.3333 55.8C55.1743 55.8 56.6667 54.3076 56.6667 52.4667C56.6667 50.6257 55.1743 49.1333 53.3333 49.1333C51.4924 49.1333 50 50.6257 50 52.4667C50 54.3076 51.4924 55.8 53.3333 55.8Z" fill="white"/>
<path d="M42.2332 55.8C44.0742 55.8 45.5666 54.3076 45.5666 52.4667C45.5666 50.6257 44.0742 49.1333 42.2332 49.1333C40.3923 49.1333 38.8999 50.6257 38.8999 52.4667C38.8999 54.3076 40.3923 55.8 42.2332 55.8Z" fill="white"/>
<path d="M66.6666 100.833L76.6666 90.8333C77.2943 90.2057 77.6469 89.3543 77.6469 88.4667C77.6469 87.579 77.2943 86.7277 76.6666 86.1C76.0389 85.4723 75.1876 85.1197 74.2999 85.1197C73.4123 85.1197 72.561 85.4723 71.9333 86.1L59.5333 98.5333C58.9124 99.1579 58.564 100.003 58.564 100.883C58.564 101.764 58.9124 102.609 59.5333 103.233L71.9333 115.667C72.2432 115.979 72.6118 116.227 73.018 116.396C73.4242 116.566 73.8599 116.653 74.2999 116.653C74.74 116.653 75.1757 116.566 75.5819 116.396C75.9881 116.227 76.3567 115.979 76.6666 115.667C77.2874 115.042 77.6359 114.197 77.6359 113.317C77.6359 112.436 77.2874 111.591 76.6666 110.967L66.6666 100.833Z" fill="white"/>
<path d="M114.4 115.6C115.024 116.221 115.869 116.569 116.75 116.569C117.63 116.569 118.475 116.221 119.1 115.6L131.533 103.333C132.154 102.709 132.502 101.864 132.502 100.983C132.502 100.103 132.154 99.2579 131.533 98.6333L119.1 86.2C118.472 85.5768 117.623 85.2284 116.738 85.2315C115.853 85.2346 115.006 85.589 114.383 86.2167C113.76 86.8444 113.411 87.6939 113.415 88.5785C113.418 89.463 113.772 90.3101 114.4 90.9333L124.4 100.933L114.4 110.933C113.789 111.556 113.447 112.394 113.447 113.267C113.447 114.139 113.789 114.977 114.4 115.6Z" fill="white"/>
<path d="M103.333 87.1667C102.953 86.9463 102.533 86.8033 102.097 86.746C101.661 86.6887 101.218 86.7183 100.793 86.8329C100.369 86.9476 99.9712 87.145 99.6233 87.414C99.2755 87.6829 98.9843 88.018 98.7666 88.4L86.4666 110C86.2254 110.379 86.0634 110.804 85.9905 111.247C85.9175 111.691 85.935 112.145 86.042 112.581C86.149 113.018 86.3431 113.428 86.6129 113.788C86.8826 114.148 87.2223 114.449 87.6115 114.674C88.0007 114.899 88.4314 115.043 88.8777 115.097C89.324 115.151 89.7766 115.115 90.2084 114.99C90.6401 114.864 91.0421 114.653 91.3901 114.368C91.738 114.084 92.0249 113.732 92.2332 113.333L104.667 91.8333C104.899 91.4427 105.049 91.0087 105.108 90.5579C105.167 90.1072 105.133 89.6491 105.008 89.2121C104.883 88.775 104.67 88.368 104.382 88.0163C104.094 87.6645 103.737 87.3754 103.333 87.1667Z" fill="white"/>
<path d="M186.2 133.333C186.003 133.332 185.812 133.27 185.651 133.157C185.49 133.044 185.368 132.885 185.3 132.7C183.973 129.211 182.094 125.958 179.733 123.067C179.621 122.905 179.561 122.713 179.561 122.517C179.561 122.32 179.621 122.128 179.733 121.967C180.748 120.207 181.024 118.116 180.499 116.154C179.974 114.192 178.691 112.518 176.933 111.5L174.433 110V49.1333C174.433 46.4812 173.38 43.9376 171.504 42.0623C169.629 40.1869 167.085 39.1333 164.433 39.1333H26.6665C24.0143 39.1333 21.4708 40.1869 19.5954 42.0623C17.7201 43.9376 16.6665 46.4812 16.6665 49.1333V133.6C16.6753 135.657 17.4964 137.628 18.951 139.082C20.4056 140.537 22.376 141.358 24.4332 141.367H69.9998L66.6665 153.7H62.2332C58.9865 153.702 55.8354 154.799 53.289 156.813C50.7426 158.827 48.9496 161.641 48.1998 164.8H39.9998C39.1158 164.8 38.2679 165.151 37.6428 165.776C37.0177 166.401 36.6665 167.249 36.6665 168.133C36.6665 169.017 37.0177 169.865 37.6428 170.49C38.2679 171.115 39.1158 171.467 39.9998 171.467H124.9C124.843 172.263 124.922 173.063 125.133 173.833C125.383 174.811 125.828 175.728 126.441 176.53C127.054 177.332 127.822 178.002 128.7 178.5L135.733 182.567C136.606 183.068 137.57 183.392 138.569 183.521C139.567 183.65 140.581 183.581 141.553 183.318C142.525 183.055 143.436 182.603 144.233 181.988C145.03 181.373 145.699 180.607 146.2 179.733C146.308 179.563 146.463 179.429 146.647 179.346C146.83 179.263 147.034 179.235 147.233 179.267C150.895 179.9 154.638 179.9 158.3 179.267C158.503 179.234 158.711 179.264 158.895 179.354C159.08 179.443 159.233 179.587 159.333 179.767C160.013 180.93 160.986 181.894 162.157 182.561C163.327 183.228 164.653 183.575 166 183.567C167.344 183.58 168.667 183.235 169.833 182.567L176.867 178.5C177.74 177.996 178.504 177.324 179.117 176.523C179.729 175.722 180.176 174.808 180.433 173.833C180.699 172.864 180.768 171.852 180.636 170.856C180.504 169.86 180.175 168.9 179.667 168.033C179.552 167.867 179.49 167.669 179.49 167.467C179.49 167.264 179.552 167.067 179.667 166.9C182.02 164.016 183.899 160.775 185.233 157.3C185.297 157.113 185.418 156.95 185.58 156.837C185.742 156.723 185.935 156.663 186.133 156.667C188.164 156.658 190.109 155.847 191.545 154.411C192.981 152.976 193.791 151.031 193.8 149V140.867C193.765 138.868 192.951 136.962 191.532 135.555C190.112 134.148 188.199 133.35 186.2 133.333ZM23.3332 49.1333C23.3332 48.2493 23.6844 47.4014 24.3095 46.7763C24.9346 46.1512 25.7824 45.8 26.6665 45.8H164.433C165.317 45.8 166.165 46.1512 166.79 46.7763C167.415 47.4014 167.767 48.2493 167.767 49.1333V59.1333H23.3332V49.1333ZM24.4332 134.7C24.2887 134.7 24.1457 134.672 24.0122 134.616C23.8788 134.561 23.7575 134.48 23.6554 134.378C23.5532 134.276 23.4722 134.154 23.4169 134.021C23.3616 133.887 23.3332 133.744 23.3332 133.6V65.8H167.767V106.667C166.189 106.248 164.519 106.345 163.001 106.945C161.483 107.545 160.198 108.616 159.333 110C159.229 110.164 159.078 110.294 158.9 110.371C158.722 110.448 158.524 110.47 158.333 110.433C154.669 109.833 150.931 109.833 147.266 110.433C147.075 110.475 146.876 110.456 146.697 110.378C146.517 110.3 146.367 110.168 146.267 110C145.766 109.126 145.097 108.36 144.299 107.746C143.501 107.132 142.589 106.681 141.616 106.421C140.643 106.161 139.628 106.096 138.63 106.229C137.632 106.363 136.67 106.693 135.8 107.2L128.767 111.267C127.891 111.759 127.124 112.424 126.511 113.22C125.898 114.016 125.452 114.927 125.2 115.9C124.667 117.865 124.93 119.961 125.933 121.733C126.055 121.891 126.121 122.084 126.121 122.283C126.121 122.482 126.055 122.676 125.933 122.833C123.572 125.725 121.693 128.978 120.367 132.467C120.299 132.651 120.176 132.811 120.015 132.924C119.855 133.037 119.663 133.098 119.466 133.1C117.834 133.102 116.245 133.628 114.933 134.6L24.4332 134.7ZM113.333 153.7H73.3332L76.6665 141.367H111.667V149C111.688 150.708 112.274 152.36 113.333 153.7ZM62.2665 160.367H121.6C122.362 161.903 123.231 163.385 124.2 164.8H55.2332C55.8625 163.476 56.8538 162.356 58.0926 161.572C59.3313 160.787 60.7669 160.369 62.2332 160.367H62.2665ZM187.2 149C187.2 149.265 187.094 149.52 186.907 149.707C186.719 149.895 186.465 150 186.2 150C184.647 150.004 183.132 150.477 181.853 151.357C180.574 152.238 179.591 153.484 179.033 154.933C177.968 157.744 176.46 160.366 174.566 162.7C173.59 163.906 173.001 165.379 172.876 166.925C172.751 168.472 173.096 170.02 173.867 171.367C173.92 171.481 173.948 171.607 173.948 171.733C173.948 171.86 173.92 171.985 173.867 172.1C173.837 172.232 173.781 172.357 173.701 172.466C173.62 172.575 173.518 172.666 173.4 172.733L166.466 176.667C166.351 176.731 166.223 176.772 166.092 176.787C165.96 176.801 165.827 176.79 165.7 176.753C165.572 176.715 165.454 176.653 165.351 176.57C165.248 176.486 165.163 176.383 165.1 176.267C164.312 174.923 163.135 173.851 161.724 173.19C160.314 172.529 158.736 172.312 157.2 172.567C154.265 173.067 151.268 173.067 148.333 172.567C146.793 172.315 145.213 172.538 143.802 173.204C142.392 173.871 141.217 174.951 140.433 176.3C140.295 176.523 140.076 176.686 139.822 176.754C139.569 176.822 139.298 176.791 139.067 176.667L132.033 172.6C131.915 172.533 131.813 172.442 131.732 172.333C131.652 172.224 131.596 172.099 131.567 171.967C131.513 171.852 131.485 171.727 131.485 171.6C131.485 171.473 131.513 171.348 131.567 171.233C132.328 169.884 132.668 168.337 132.543 166.793C132.418 165.248 131.834 163.777 130.866 162.567C128.956 160.238 127.436 157.615 126.367 154.8C125.807 153.389 124.839 152.178 123.585 151.322C122.332 150.467 120.851 150.006 119.333 150C119.068 150 118.814 149.895 118.626 149.707C118.439 149.52 118.333 149.265 118.333 149V140.867C118.329 140.734 118.351 140.602 118.4 140.479C118.448 140.355 118.522 140.243 118.616 140.149C118.71 140.055 118.822 139.982 118.945 139.933C119.068 139.885 119.201 139.862 119.333 139.867C120.881 139.861 122.391 139.386 123.664 138.506C124.938 137.625 125.915 136.38 126.466 134.933C127.529 132.114 129.049 129.49 130.967 127.167C131.934 125.957 132.518 124.485 132.643 122.94C132.768 121.396 132.428 119.85 131.667 118.5C131.612 118.379 131.584 118.249 131.584 118.117C131.584 117.984 131.612 117.854 131.667 117.733C131.694 117.604 131.75 117.483 131.831 117.379C131.911 117.275 132.015 117.191 132.133 117.133L139.167 113.067C139.33 113.021 139.503 113.021 139.667 113.067C139.833 113.069 139.997 113.113 140.142 113.194C140.288 113.276 140.411 113.392 140.5 113.533C141.287 114.88 142.462 115.956 143.872 116.623C145.282 117.289 146.86 117.513 148.4 117.267C151.334 116.767 154.332 116.767 157.266 117.267C158.816 117.476 160.393 117.212 161.791 116.511C163.189 115.809 164.342 114.701 165.1 113.333C165.165 113.223 165.251 113.127 165.354 113.051C165.456 112.975 165.573 112.919 165.697 112.888C165.821 112.857 165.95 112.851 166.076 112.87C166.203 112.89 166.324 112.934 166.433 113L173.467 117.067C173.585 117.125 173.688 117.209 173.769 117.313C173.85 117.417 173.906 117.538 173.933 117.667C173.987 117.787 174.016 117.918 174.016 118.05C174.016 118.182 173.987 118.313 173.933 118.433C173.166 119.775 172.822 121.318 172.947 122.858C173.072 124.399 173.66 125.866 174.633 127.067C176.527 129.413 178.035 132.046 179.1 134.867C179.625 136.34 180.585 137.619 181.853 138.536C183.12 139.452 184.636 139.963 186.2 140C186.332 139.995 186.465 140.018 186.588 140.067C186.711 140.115 186.824 140.189 186.917 140.283C187.011 140.376 187.085 140.488 187.133 140.612C187.182 140.735 187.204 140.867 187.2 141V149Z" fill="white"/>
<path d="M152.767 129.8C149.774 129.8 146.848 130.688 144.359 132.35C141.87 134.013 139.931 136.377 138.785 139.142C137.64 141.907 137.34 144.95 137.924 147.886C138.508 150.821 139.949 153.518 142.066 155.634C144.182 157.751 146.879 159.192 149.814 159.776C152.75 160.36 155.793 160.06 158.558 158.915C161.323 157.769 163.687 155.83 165.35 153.341C167.012 150.852 167.9 147.926 167.9 144.933C167.9 140.92 166.306 137.071 163.468 134.232C160.629 131.394 156.78 129.8 152.767 129.8ZM152.767 153.4C151.092 153.4 149.455 152.903 148.063 151.973C146.67 151.043 145.585 149.72 144.944 148.173C144.304 146.626 144.136 144.924 144.463 143.282C144.789 141.639 145.596 140.131 146.78 138.947C147.964 137.762 149.472 136.956 151.115 136.629C152.757 136.303 154.46 136.47 156.007 137.111C157.554 137.752 158.876 138.837 159.806 140.23C160.737 141.622 161.233 143.259 161.233 144.933C161.216 147.167 160.316 149.304 158.73 150.877C157.144 152.451 155.001 153.333 152.767 153.333V153.4Z" fill="white"/>
</svg>
