<svg width="70" height="56" viewBox="0 0 70 56" fill="none" xmlns="http://www.w3.org/2000/svg">
<path d="M0 0H70V46.3857H0V0ZM1.20172 1.19705V45.1886H68.7983V1.19705H1.20172Z" fill="white"/>
<path d="M26.2487 12.5932H14.0571V18.0717H24.5067V25.5589H14.0571V38.5926H5.32617V5.03716H26.2482V12.5928L26.2487 12.5932ZM65.412 39.8027L58.3081 42.5648L54.1603 37.794C51.9833 38.6158 49.5313 39.0495 46.9189 39.0495C36.5839 39.0495 29.1131 32.1786 29.1131 21.8154C29.1131 11.3835 36.5836 4.55786 46.9189 4.55786C57.2768 4.55786 64.747 11.383 64.747 21.8154C64.747 26.6546 63.12 30.7406 60.3243 33.7084L65.412 39.8027ZM37.7984 21.8157C37.7984 28.0246 41.6941 31.6312 46.9189 31.6312C52.1667 31.6312 56.0623 28.0246 56.0623 21.8157C56.0623 16.0633 52.1667 12.4567 46.9189 12.4567C41.6941 12.4567 37.7984 16.0633 37.7984 21.8157V21.8157Z" fill="white"/>
<path d="M3.06664 55.4547C3.03299 55.4547 3.00415 55.426 3.00415 55.3925V52.5243C3.00415 52.4908 3.03299 52.4621 3.06664 52.4621H5.05188C5.0711 52.4621 5.08552 52.4669 5.09514 52.4812C5.10956 52.4908 5.11437 52.5052 5.11437 52.5243L5.10956 53.0606C5.10956 53.0941 5.08072 53.1228 5.04707 53.1228H3.74921V53.7022H4.56638C4.60003 53.7022 4.62887 53.7309 4.62887 53.7645V54.3055C4.62887 54.339 4.60003 54.3678 4.56638 54.3678H3.74921V55.3925C3.74921 55.426 3.72518 55.4547 3.69153 55.4547H3.06664V55.4547ZM6.26994 55.4547C6.23148 55.4547 6.20745 55.426 6.20745 55.3925V52.5243C6.20745 52.4908 6.23148 52.4621 6.26994 52.4621H7.44281C7.80813 52.4621 8.09655 52.553 8.29844 52.7398C8.59646 53.0079 8.69741 53.5155 8.5532 53.889C8.50032 54.023 8.40899 54.1475 8.29363 54.2385C8.22633 54.2912 8.15423 54.3295 8.08213 54.3678C8.28882 54.6934 8.60127 55.3541 8.60127 55.3541C8.60607 55.3637 8.61569 55.3781 8.61569 55.3925C8.61569 55.426 8.58685 55.4547 8.5532 55.4547H7.84178C7.82256 55.4547 7.79852 55.4403 7.78891 55.4212L7.37071 54.5066C7.2217 54.5162 7.10633 54.5114 6.95251 54.5114V55.3925C6.95251 55.426 6.92367 55.4547 6.89002 55.4547H6.26994V55.4547ZM6.95251 53.8459C6.95251 53.8459 7.55818 53.9129 7.76968 53.774C7.8514 53.7214 7.89947 53.5921 7.89947 53.4963C7.89466 53.391 7.84178 53.2809 7.75526 53.2138C7.66393 53.1372 7.43801 53.1133 7.32264 53.1133L6.95251 53.1228V53.8459V53.8459ZM11.3575 55.4547C11.0691 55.4547 10.8047 55.3877 10.574 55.2536C10.3385 55.1195 10.151 54.928 10.0116 54.6982C9.87701 54.4635 9.80971 54.1954 9.80971 53.9081C9.80971 53.6256 9.87701 53.3623 10.0116 53.1276C10.151 52.893 10.3337 52.7063 10.5692 52.5722C10.8047 52.4381 11.0691 52.3711 11.3575 52.3711C11.6411 52.3711 11.9055 52.4381 12.141 52.5722C12.3766 52.7063 12.564 52.893 12.6986 53.1276C12.838 53.3623 12.9053 53.6256 12.9053 53.9081C12.9053 54.1954 12.838 54.4588 12.6986 54.6934C12.564 54.928 12.3766 55.1147 12.141 55.2536C11.9055 55.3877 11.6411 55.4547 11.3575 55.4547ZM11.3671 54.7652C11.5065 54.7652 11.6363 54.7269 11.7517 54.6551C11.8719 54.5785 11.968 54.4779 12.0353 54.3438C12.1074 54.2146 12.141 54.0661 12.141 53.9081C12.141 53.7549 12.1074 53.6065 12.0353 53.4772C11.968 53.3479 11.8719 53.2473 11.7517 53.1707C11.6363 53.0989 11.5065 53.0606 11.3671 53.0606C11.2229 53.0606 11.0931 53.0989 10.973 53.1707C10.848 53.2473 10.7519 53.3479 10.6798 53.4772C10.6077 53.6112 10.574 53.7549 10.574 53.9081C10.574 54.0661 10.6077 54.2146 10.6798 54.3438C10.7567 54.4731 10.8528 54.5785 10.973 54.6503C11.0931 54.7269 11.2229 54.7652 11.3671 54.7652ZM14.157 55.4547C14.1234 55.4547 14.0946 55.426 14.0946 55.3925V52.5243C14.0946 52.4908 14.1234 52.4621 14.157 52.4621H14.7243C14.7435 52.4621 14.7627 52.4716 14.7771 52.486L15.8827 54.1858V52.5243C15.8827 52.4908 15.9116 52.4621 15.9452 52.4621H16.5364C16.5701 52.4621 16.5989 52.4908 16.5989 52.5243V55.3925C16.5989 55.426 16.5701 55.4547 16.5364 55.4547H15.9692C15.95 55.4547 15.9308 55.4451 15.9164 55.4308L14.8156 53.7405V55.3925C14.8156 55.426 14.7867 55.4547 14.7531 55.4547H14.157V55.4547ZM18.5669 55.4547C18.5332 55.4547 18.5092 55.426 18.5092 55.3925V53.1324H17.8506C17.817 53.1324 17.7882 53.1085 17.7882 53.075V52.5243C17.7882 52.4908 17.817 52.4621 17.8506 52.4621H19.9128C19.9512 52.4621 19.9753 52.4908 19.9753 52.5243V53.075C19.9753 53.1085 19.9512 53.1324 19.9128 53.1324H19.2542V55.3925C19.2542 55.426 19.2254 55.4547 19.1918 55.4547H18.5669V55.4547ZM23.1709 55.4547V52.5866C23.1709 52.4669 23.1949 52.4429 23.2334 52.4429H25.3388C25.3724 52.4429 25.4013 52.4669 25.4013 52.5004V53.0414C25.4013 53.075 25.3724 53.1037 25.3388 53.1037H23.916V53.6017H24.8148C24.8485 53.6017 24.8773 53.6304 24.8773 53.6639V54.2002C24.8773 54.2337 24.8485 54.2624 24.8148 54.2624H23.916V54.7748H25.334C25.3676 54.7748 25.3965 54.8035 25.3965 54.837V55.3733C25.3965 55.4068 25.3676 55.4355 25.334 55.4355H23.2334C23.1949 55.4355 23.1709 55.4068 23.1709 55.4547V55.4547ZM26.653 55.4547C26.6193 55.4547 26.5905 55.426 26.5905 55.3925V52.5243C26.5905 52.4908 26.6193 52.4621 26.653 52.4621H27.2202C27.2394 52.4621 27.2586 52.4716 27.2731 52.486L28.3786 54.1858V52.5243C28.3786 52.4908 28.4075 52.4621 28.4411 52.4621H29.0324C29.066 52.4621 29.0949 52.4908 29.0949 52.5243V55.3925C29.0949 55.426 29.066 55.4547 29.0324 55.4547H28.4652C28.4459 55.4547 28.4267 55.4451 28.4123 55.4308L27.3115 53.7405V55.3925C27.3115 55.426 27.2827 55.4547 27.249 55.4547H26.653V55.4547ZM30.3466 55.4547C30.3081 55.4547 30.2841 55.426 30.2841 55.3925V52.5243C30.2841 52.4908 30.3081 52.4621 30.3466 52.4621H31.4377C31.7262 52.4621 31.9905 52.5243 32.2213 52.6536C32.452 52.7781 32.6298 52.9553 32.7596 53.1851C32.8846 53.4101 32.9519 53.6687 32.9519 53.956C32.9519 54.2481 32.8846 54.5066 32.7548 54.7317C32.625 54.9615 32.4424 55.1387 32.2068 55.2632C31.9761 55.3925 31.7069 55.4547 31.4137 55.4547H30.3466V55.4547ZM31.0292 54.7843H31.4522C31.5916 54.7843 31.7213 54.7508 31.8319 54.6838C31.9425 54.612 32.0338 54.5162 32.0963 54.3917C32.1588 54.2672 32.1924 54.1236 32.1924 53.9608C32.1924 53.8028 32.1588 53.6543 32.0915 53.5298C32.0242 53.4006 31.9328 53.3048 31.8175 53.233C31.7021 53.1659 31.5675 53.1276 31.4233 53.1276H31.0292V54.7843V54.7843ZM36.21 55.4547C36.1715 55.4547 36.1475 55.426 36.1475 55.3925V52.5243C36.1475 52.4908 36.1715 52.4621 36.21 52.4621H37.3012C37.5896 52.4621 37.8539 52.5243 38.0847 52.6536C38.3154 52.7781 38.4933 52.9553 38.623 53.1851C38.748 53.4101 38.8153 53.6687 38.8153 53.956C38.8153 54.2481 38.748 54.5066 38.6182 54.7317C38.4885 54.9615 38.3058 55.1387 38.0703 55.2632C37.8395 55.3925 37.5703 55.4547 37.2771 55.4547H36.21ZM36.8926 54.7843H37.3156C37.455 54.7843 37.5848 54.7508 37.6953 54.6838C37.8059 54.612 37.8972 54.5162 37.9597 54.3917C38.0222 54.2672 38.0558 54.1236 38.0558 53.9608C38.0558 53.8028 38.0222 53.6543 37.9549 53.5298C37.8876 53.4006 37.7963 53.3048 37.6809 53.233C37.5655 53.1659 37.4309 53.1276 37.2867 53.1276H36.8926V54.7843V54.7843ZM40.0045 55.4547V52.5866C40.0045 52.4669 40.0286 52.4429 40.067 52.4429H42.1724C42.2061 52.4429 42.2349 52.4669 42.2349 52.5004V53.0414C42.2349 53.075 42.2061 53.1037 42.1724 53.1037H40.7496V53.6017H41.6485C41.6821 53.6017 41.711 53.6304 41.711 53.6639V54.2002C41.711 54.2337 41.6821 54.2624 41.6485 54.2624H40.7496V54.7748H42.1676C42.2013 54.7748 42.2301 54.8035 42.2301 54.837V55.3733C42.2301 55.4068 42.2013 55.4355 42.1676 55.4355H40.067C40.0286 55.4355 40.0045 55.4068 40.0045 55.4547V55.4547ZM44.448 55.4547C44.424 55.4547 44.3999 55.4403 44.3903 55.4164L43.429 52.5435C43.4193 52.5243 43.4241 52.5052 43.4338 52.486C43.4482 52.4716 43.4674 52.4621 43.4866 52.4621H44.1596C44.1836 52.4621 44.2077 52.4764 44.2173 52.5052L44.7893 54.3774L45.3661 52.5052C45.3757 52.4764 45.3998 52.4621 45.4238 52.4621H46.0679C46.0871 52.4621 46.1064 52.4716 46.1208 52.486C46.1304 52.5052 46.1352 52.5243 46.1256 52.5435L45.1498 55.4164C45.1402 55.4403 45.121 55.4547 45.0921 55.4547H44.448V55.4547ZM47.3196 55.4547V52.5866C47.3196 52.4669 47.3437 52.4429 47.3821 52.4429H49.4875C49.5212 52.4429 49.55 52.4669 49.55 52.5004V53.0414C49.55 53.075 49.5212 53.1037 49.4875 53.1037H48.0647V53.6017H48.9636C48.9972 53.6017 49.0261 53.6304 49.0261 53.6639V54.2002C49.0261 54.2337 48.9972 54.2624 48.9636 54.2624H48.0647V54.7748H49.4827C49.5164 54.7748 49.5452 54.8035 49.5452 54.837V55.3733C49.5452 55.4068 49.5164 55.4355 49.4827 55.4355H47.3821C47.3437 55.4355 47.3196 55.4068 47.3196 55.4547V55.4547ZM50.8017 55.4547C50.7681 55.4547 50.7392 55.426 50.7392 55.3925V52.5243C50.7392 52.4908 50.7681 52.4621 50.8017 52.4621H51.4266C51.4603 52.4621 51.4891 52.4908 51.4891 52.5243V54.7652H52.5707C52.6043 54.7652 52.6331 54.7939 52.6331 54.8274V55.3925C52.6331 55.426 52.6043 55.4547 52.5707 55.4547H50.8017V55.4547ZM55.1779 55.4547C54.8895 55.4547 54.6251 55.3877 54.3944 55.2536C54.1588 55.1195 53.9714 54.928 53.832 54.6982C53.6974 54.4635 53.6301 54.1954 53.6301 53.9081C53.6301 53.6256 53.6974 53.3623 53.832 53.1276C53.9714 52.893 54.154 52.7063 54.3896 52.5722C54.6251 52.4381 54.8895 52.3711 55.1779 52.3711C55.4615 52.3711 55.7259 52.4381 55.9614 52.5722C56.197 52.7063 56.3844 52.893 56.519 53.1276C56.6584 53.3623 56.7257 53.6256 56.7257 53.9081C56.7257 54.1954 56.6584 54.4588 56.519 54.6934C56.3844 54.928 56.197 55.1147 55.9614 55.2536C55.7259 55.3877 55.4615 55.4547 55.1779 55.4547ZM55.1875 54.7652C55.3269 54.7652 55.4567 54.7269 55.5721 54.6551C55.6922 54.5785 55.7884 54.4779 55.8557 54.3438C55.9278 54.2146 55.9614 54.0661 55.9614 53.9081C55.9614 53.7549 55.9278 53.6065 55.8557 53.4772C55.7884 53.3479 55.6922 53.2473 55.5721 53.1707C55.4567 53.0989 55.3269 53.0606 55.1875 53.0606C55.0433 53.0606 54.9135 53.0989 54.7933 53.1707C54.6684 53.2473 54.5722 53.3479 54.5001 53.4772C54.428 53.6112 54.3944 53.7549 54.3944 53.9081C54.3944 54.0661 54.428 54.2146 54.5001 54.3438C54.577 54.4731 54.6732 54.5785 54.7933 54.6503C54.9135 54.7269 55.0433 54.7652 55.1875 54.7652ZM57.9726 55.4547C57.939 55.4547 57.9149 55.426 57.9149 55.3925V52.5243C57.9149 52.4908 57.939 52.4621 57.9726 52.4621H59.1503C59.5156 52.4621 59.804 52.553 60.0059 52.7398C60.3039 53.0079 60.4049 53.5155 60.2607 53.889C60.2078 54.023 60.1165 54.1475 60.0011 54.2385C59.6118 54.5402 59.1263 54.5114 58.66 54.5114V55.3925C58.66 55.426 58.6312 55.4547 58.5975 55.4547H57.9726ZM58.66 53.8459C58.66 53.8459 59.2657 53.9129 59.4772 53.774C59.5589 53.7214 59.6069 53.5921 59.6069 53.4963C59.6021 53.391 59.5493 53.2809 59.4627 53.2138C59.3714 53.1372 59.1455 53.1133 59.0301 53.1133L58.66 53.1228V53.8459V53.8459ZM61.522 55.4547V52.5866C61.522 52.4669 61.546 52.4429 61.5845 52.4429H63.6899C63.7236 52.4429 63.7524 52.4669 63.7524 52.5004V53.0414C63.7524 53.075 63.7236 53.1037 63.6899 53.1037H62.2671V53.6017H63.166C63.1996 53.6017 63.2284 53.6304 63.2284 53.6639V54.2002C63.2284 54.2337 63.1996 54.2624 63.166 54.2624H62.2671V54.7748H63.6851C63.7187 54.7748 63.7476 54.8035 63.7476 54.837V55.3733C63.7476 55.4068 63.7187 55.4355 63.6851 55.4355H61.5845C61.546 55.4355 61.522 55.4068 61.522 55.4547V55.4547ZM65.0041 55.4547C64.9656 55.4547 64.9416 55.426 64.9416 55.3925V52.5243C64.9416 52.4908 64.9656 52.4621 65.0041 52.4621H66.177C66.5423 52.4621 66.8307 52.553 67.0326 52.7398C67.3306 53.0079 67.4316 53.5155 67.2874 53.889C67.2345 54.023 67.1432 54.1475 67.0278 54.2385C66.9605 54.2912 66.8884 54.3295 66.8163 54.3678C67.023 54.6934 67.3354 55.3541 67.3354 55.3541C67.3402 55.3637 67.3499 55.3781 67.3499 55.3925C67.3499 55.426 67.321 55.4547 67.2874 55.4547H66.5759C66.5567 55.4547 66.5327 55.4403 66.5231 55.4212L66.1049 54.5066C65.9559 54.5162 65.8405 54.5114 65.6867 54.5114V55.3925C65.6867 55.426 65.6578 55.4547 65.6242 55.4547H65.0041V55.4547ZM65.6867 53.8459C65.6867 53.8459 66.2923 53.9129 66.5038 53.774C66.5856 53.7214 66.6336 53.5921 66.6336 53.4963C66.6288 53.391 66.5759 53.2809 66.4894 53.2138C66.3981 53.1372 66.1722 53.1133 66.0568 53.1133L65.6867 53.1228V53.8459V53.8459Z" fill="white"/>
</svg>
