<svg width="848" height="630" viewBox="0 0 848 630" fill="none" xmlns="http://www.w3.org/2000/svg">
<g clip-path="url(#clip0_274_61067)">
<path d="M781.233 153.144C684.987 19.19 481.671 -35.1476 281.716 23.3753C176.006 54.3146 74.0824 116.306 23.5714 236.341C-66.7225 450.918 122.861 519.448 246.828 541.29C306.772 551.851 363.228 569.592 414.819 593.746C507.635 637.201 671.927 675.707 795.813 494.696C885.606 363.498 845.343 242.371 781.233 153.144Z" fill="white"/>
<path d="M223.229 179.646C222.96 177.517 222.415 175.432 221.609 173.444C221.507 173.068 221.327 172.717 221.081 172.414C220.835 172.112 220.529 171.864 220.182 171.686C219.719 171.565 219.232 171.56 218.766 171.67L211.496 172.783C210.888 172.81 210.305 173.037 209.837 173.427C208.89 174.423 209.823 176.027 209.794 177.401C209.761 178.946 208.389 180.2 206.9 180.615C205.381 180.922 203.814 180.903 202.302 180.558L192.137 178.978C195.131 178.022 197.795 176.244 199.827 173.845C201.165 172.26 201.877 169.301 199.943 168.55C199.369 168.393 198.77 168.345 198.177 168.409C193.572 168.444 189.947 164.598 185.636 162.978C182.876 162.008 179.88 161.936 177.077 162.772C174.274 163.608 171.807 165.309 170.029 167.632L175.444 167.893C175.954 167.865 176.459 167.999 176.887 168.277C178.073 169.253 176.598 171.126 176.765 172.653C176.982 174.637 179.616 175.061 181.602 175.262C183.587 175.462 186.106 177.076 185.151 178.828C175.172 182.266 165.016 172.108 154.536 173.358C151.883 173.675 149.378 174.717 146.789 175.372C130.968 179.376 114.613 168.694 98.4518 170.956C94.8589 171.569 91.3278 172.5 87.9002 173.74C85.7006 174.462 83.4063 175.243 81.8081 176.918C80.2099 178.593 79.6016 181.458 81.1157 183.21C76.9426 183.553 72.7416 183.154 68.708 182.03C69.7987 182.636 70.7062 183.525 71.335 184.604C71.9638 185.682 72.2909 186.909 72.2818 188.157C65.766 189.22 59.4227 191.155 53.4226 193.909C54.5424 195.771 55.8504 197.514 57.326 199.11L49.0771 204.41C51.864 205.112 53.3049 208.913 51.6842 211.287C54.5739 210.001 56.3647 206.675 59.4547 206.001C61.4791 205.559 63.5389 206.387 65.4594 207.165C67.3798 207.943 69.4905 208.698 71.4785 208.114C73.4666 207.53 74.9329 204.951 73.6697 203.309C82.1671 200.829 90.9489 199.457 99.7976 199.226C100.48 199.14 101.173 199.272 101.776 199.602C102.928 200.401 102.625 202.127 102.563 203.528C102.501 204.929 103.593 206.77 104.845 206.139C103.372 207.416 104.631 209.82 106.044 211.164C107.457 212.507 109.16 214.36 108.295 216.107C108.069 216.563 107.686 216.928 107.469 217.388C106.827 218.746 107.845 220.33 109.046 221.232C110.247 222.134 111.718 222.764 112.552 224.013C113.386 225.262 113.007 227.448 111.516 227.622L107.276 222.239C105.828 223.741 104.835 225.623 104.412 227.667C108.908 231.343 109.584 238.824 105.821 243.247C103.897 245.507 101.162 246.88 98.7749 248.643C96.3877 250.406 94.1787 252.916 94.1847 255.884C94.1951 261.011 93.7762 265.775 95.6973 270.528C99.2397 279.294 103.33 287.828 107.943 296.08C109.154 298.247 110.72 300.622 113.174 300.996C110.072 293.444 107.28 285.775 104.798 277.988C106.415 277.995 108.283 278.123 109.231 279.433C110.016 280.518 109.847 281.993 110.091 283.31C110.401 284.585 110.919 285.801 111.622 286.91L126.433 313.296C127.66 315.483 129.069 317.831 131.415 318.717C132.915 319.284 134.651 319.177 136.032 319.992C137.114 320.631 137.843 321.766 138.947 322.368C142.067 324.07 146.405 320.805 149.321 322.838C150.154 323.419 150.685 324.342 151.453 325.007C154.146 327.34 158.563 325.78 161.672 327.519C163.675 328.641 164.713 330.883 165.782 332.916C168.459 338.006 172.79 342.994 178.526 343.399C180.328 343.526 182.168 343.185 183.93 343.585C185.691 343.986 187.425 345.524 187.142 347.308C186.658 350.367 188.169 353.717 187.763 356.788C187.024 362.381 179.091 364.839 178.41 370.44C178.261 371.666 178.494 372.932 178.202 374.132C177.844 375.604 176.74 376.801 176.347 378.264C175.603 381.035 177.588 383.792 179.769 385.657C181.95 387.521 184.551 389.129 185.743 391.738C187.003 394.497 186.384 397.713 186.794 400.718C187.689 407.278 193.354 412.141 199.184 415.276C200.96 416.232 202.867 417.157 204.017 418.814C205.517 420.977 205.368 423.829 205.869 426.414C207.096 432.744 212.424 437.96 212.575 444.406C212.683 448.988 210.136 453.144 208.615 457.467C207.189 461.609 206.673 466.01 207.102 470.37C207.532 474.729 208.896 478.945 211.102 482.73C212.24 484.651 213.601 486.463 214.406 488.547C215.843 492.264 215.377 496.491 216.701 500.25C218.452 505.22 223.264 509.325 222.803 514.574C224.987 519.111 229.811 521.34 234.661 522.691L243.354 525.111C245.019 525.574 246.758 526.041 248.453 525.706C250.148 525.37 251.766 523.963 251.722 522.235C247.459 521.274 243.059 520.251 239.545 517.653C236.031 515.055 233.624 510.428 234.957 506.266C235.575 504.336 236.891 502.107 235.64 500.512C234.924 499.599 233.615 499.361 232.807 498.527C231.548 497.228 231.981 495.045 232.886 493.478C233.792 491.911 235.101 490.511 235.466 488.738C235.65 487.746 235.527 486.722 235.113 485.802C234.699 484.883 234.013 484.112 233.148 483.593C234.76 482.984 236.226 482.043 237.451 480.832C238.582 479.539 239.105 477.547 238.215 476.077C240.858 476.413 243.979 476.577 245.714 474.555C247.1 472.94 247.004 470.525 246.457 468.469C245.909 466.413 244.984 464.415 244.955 462.287C251.053 462.577 257.164 462.369 263.228 461.668C262.351 458.714 260.358 456.218 257.672 454.709C260.418 454.244 262.92 450.956 263.788 448.309C264.656 445.661 264.435 442.778 263.898 440.044C263.692 439.34 263.664 438.596 263.816 437.879C264.125 436.893 265.094 436.292 265.989 435.777L279.621 427.947C280.435 427.539 281.172 426.995 281.801 426.337C283.229 424.659 283.018 422.126 282.286 420.048C281.555 417.969 280.384 416.014 280.102 413.829C279.26 407.293 286.255 402.603 288.616 396.45C289.543 394.035 289.732 391.411 289.911 388.831C290.103 386.06 290.118 382.841 287.99 381.055C285.951 379.343 282.765 379.725 280.631 378.133C278.675 376.673 278 373.838 275.862 372.659C273.921 371.588 271.488 372.269 269.329 371.765C265.528 370.879 263.137 366.497 259.255 366.092C257.065 365.863 254.586 366.934 252.791 365.658C251.209 364.534 251.146 362.274 250.845 360.357C250.317 357.378 248.889 354.631 246.754 352.488C244.618 350.345 241.877 348.908 238.899 348.371C236.641 348.009 234.183 348.146 232.262 346.905C230.317 345.648 229.425 343.295 227.897 341.555C225.434 338.75 221.556 337.753 217.923 336.899L203.144 333.424C200.52 332.807 197.139 332.48 195.731 334.779C195.314 335.654 195.019 336.582 194.854 337.537C194.326 339.265 193.265 340.781 191.822 341.867C190.378 342.954 188.628 343.555 186.822 343.584C185.583 341.471 183.577 339.918 181.221 339.249C179.722 338.831 178.118 338.785 176.689 338.17C175.911 337.79 175.218 337.255 174.653 336.598C174.089 335.941 173.664 335.176 173.406 334.349C173.147 333.523 173.06 332.652 173.15 331.79C173.239 330.928 173.504 330.094 173.927 329.338C174.779 327.821 175.108 326.065 174.863 324.342C174.619 322.619 173.814 321.025 172.573 319.805C170.059 317.548 166.424 317.003 163.054 317.229C162.171 315.303 163.647 313.129 165.237 311.73C166.828 310.33 168.759 308.954 169.105 306.863C169.65 303.575 165.455 301.078 162.27 302.058C159.085 303.039 157.053 306.133 155.709 309.183C154.938 310.933 154.282 312.775 153.066 314.251C151.85 315.726 149.892 316.783 148.039 316.309C145.417 315.639 144.404 312.523 143.823 309.878C143.045 306.331 142.261 302.734 142.425 299.105C142.588 295.476 143.811 291.75 146.486 289.294C150.846 285.291 157.533 285.684 163.417 286.322C162.027 284.756 162.37 282.116 163.857 280.641C164.643 279.944 165.586 279.448 166.606 279.198C167.626 278.947 168.691 278.949 169.71 279.203C171.483 279.572 173.08 280.527 174.244 281.915C175.916 283.954 176.392 286.706 177.656 289.02C178.919 291.334 181.761 293.308 184.087 292.067C186.096 290.994 186.414 288.208 185.914 285.986C185.415 283.764 184.353 281.604 184.534 279.333C184.879 275.001 189.369 272.394 193.331 270.61C197.293 268.826 201.83 266.426 202.457 262.126C202.479 261.284 202.638 260.452 202.928 259.661C203.367 258.962 203.978 258.388 204.702 257.992C216.265 250.349 228.02 242.613 241.236 238.437C241.924 238.219 242.005 238.461 242.705 238.291C243.686 237.724 243.036 236.156 242.096 235.524C241.156 234.892 239.899 234.408 239.66 233.3C239.485 232.486 239.965 231.686 240.089 230.863C240.395 228.84 237.975 226.971 236.096 227.78C235.034 226.374 237.135 224.74 238.833 224.273C243.934 222.869 249.169 222.013 254.451 221.721C255.061 221.624 255.685 221.73 256.229 222.023C257.116 222.638 257.002 224.047 256.374 224.925C255.745 225.802 254.767 226.353 253.983 227.095C253.127 227.929 252.517 228.982 252.218 230.14C251.92 231.297 251.945 232.514 252.291 233.659C255.049 235.061 258.046 236.506 261.1 236.011C264.154 235.517 266.865 232.085 265.43 229.344C264.093 226.792 260.077 226.216 259.387 223.418C258.578 220.143 263.214 217.23 262.17 214.022C261.713 212.617 260.312 211.79 259.238 210.775C257.969 209.531 257.106 207.933 256.762 206.19C256.418 204.446 256.609 202.64 257.31 201.007C255.56 201.315 253.762 201.198 252.066 200.668C250.371 200.137 248.827 199.207 247.564 197.956C245.233 195.603 243.374 191.892 240.063 191.997C237.026 192.093 234.409 195.638 231.569 194.557C230.87 194.291 230.133 193.749 229.456 194.066C229.234 194.211 229.048 194.403 228.911 194.63C228.775 194.856 228.692 195.111 228.668 195.375C227.946 198.826 229.188 202.759 227.307 205.742C225.26 208.988 220.526 209.438 218.045 212.364C216.698 213.953 216.176 216.094 214.938 217.769C213.7 219.444 211.072 220.509 209.586 219.049C210.316 217.548 210.516 215.843 210.152 214.214C209.788 212.584 208.882 211.126 207.582 210.078C206.203 209.178 204.716 208.455 203.156 207.925C201.413 207.187 199.755 206.263 198.211 205.169C197.438 204.702 196.809 204.03 196.396 203.226C196.069 202.22 196.113 201.131 196.52 200.154C197.274 197.994 198.603 196.08 200.364 194.62C202.126 193.16 204.252 192.209 206.515 191.869C208.493 191.6 210.795 191.695 212.104 190.187C212.797 189.389 213.161 188.183 214.166 187.859C214.809 187.73 215.477 187.813 216.07 188.094L223.454 190.693C224.277 191.065 225.184 191.215 226.084 191.129C226.53 191.068 226.937 190.842 227.223 190.494C227.509 190.146 227.653 189.703 227.626 189.254C227.39 188.028 225.503 187.439 225.675 186.202C225.771 185.801 225.987 185.439 226.293 185.163C228.958 182.326 232.217 180.114 235.836 178.684C239.456 177.255 243.347 176.643 247.231 176.893C248.163 178.424 246.689 180.237 245.462 181.544C244.236 182.851 243.25 185.186 244.734 186.192C245.341 186.502 246.018 186.655 246.7 186.635C248.518 186.881 250.284 187.417 251.933 188.222C254.484 189.333 256.987 190.548 259.44 191.868C259.224 190.25 259.017 188.545 259.63 187.032C260.243 185.519 261.986 184.333 263.508 184.922C264.975 185.49 265.728 187.433 267.291 187.61C269.376 187.848 270.198 184.767 269.327 182.858C268.456 180.948 266.732 179.35 266.588 177.256C266.491 175.843 267.029 174.091 265.901 173.236C265.499 172.979 265.043 172.819 264.57 172.769L236.401 167.585C234.729 167.277 232.312 167.513 232.238 169.212C232.196 170.161 233.043 171.1 232.668 171.972C232.268 172.903 230.952 172.817 229.994 173.147C228.507 173.658 227.761 175.423 227.904 176.989C228.165 178.545 228.767 180.024 229.668 181.32C227.836 180.553 225.061 180.413 223.229 179.646Z" fill="#3F3D56"/>
<path d="M200.753 155.731C198.977 155.143 197.063 155.115 195.271 155.652C193.478 156.189 191.894 157.264 190.734 158.732C190.27 159.343 189.88 160.185 190.269 160.846C190.825 161.794 192.244 161.42 193.29 161.081C194.827 160.531 196.5 160.491 198.061 160.967C199.043 161.304 199.922 161.9 200.908 162.224C201.388 162.425 201.914 162.492 202.429 162.416C202.944 162.341 203.428 162.127 203.831 161.797C204.508 161.107 204.55 160.033 204.552 159.066C204.598 158.743 204.573 158.413 204.476 158.1C204.379 157.788 204.214 157.501 203.992 157.261C203.597 157.033 203.154 156.901 202.698 156.878C201.677 156.689 200.755 156.15 200.089 155.354" fill="#3F3D56"/>
<path d="M210.91 152.902C210.513 152.88 210.117 152.961 209.759 153.137C209.402 153.313 209.096 153.578 208.871 153.906C208.646 154.235 208.509 154.615 208.473 155.012C208.438 155.408 208.505 155.807 208.668 156.171C209.889 156.504 211.164 156.587 212.418 156.415C213.043 156.318 213.626 156.038 214.092 155.61C214.558 155.183 214.888 154.626 215.039 154.012C213.563 154.28 212.039 153.989 210.766 153.196" fill="#3F3D56"/>
<path d="M244.988 148.179C241.666 148.885 238.438 149.982 235.373 151.446C236.818 152.001 238.046 153.006 238.877 154.313C239.708 155.62 240.097 157.159 239.987 158.703C239.857 159.296 239.872 159.912 240.031 160.498C240.384 161.354 241.407 161.675 242.307 161.895C243.923 162.387 245.611 162.603 247.299 162.533C248.144 162.488 248.964 162.234 249.685 161.793C250.407 161.352 251.007 160.738 251.432 160.007C251.676 159.313 251.963 158.634 252.291 157.975C254.448 154.69 260.854 158.662 263.169 155.487C263.985 154.369 263.91 152.685 264.974 151.799C265.524 151.413 266.161 151.17 266.828 151.091C271.485 150.166 276.188 149.496 280.917 149.084C283.158 148.889 286.079 148.084 286.098 145.835C277.657 144.177 268.906 145.354 261.203 149.184C258.428 150.574 254.758 153.499 252.085 151.656C251.084 150.966 251.133 149.107 249.756 148.332C248.348 147.538 246.483 147.861 244.988 148.179Z" fill="#3F3D56"/>
<path d="M272.591 153.341L276.553 154.102C275.823 154.07 275.096 154.194 274.418 154.465C273.74 154.736 273.128 155.149 272.622 155.676C272.117 156.202 271.729 156.831 271.486 157.519C271.242 158.208 271.148 158.94 271.21 159.667C274.92 160.907 278.965 159.701 282.874 159.866C286.782 160.03 291.33 162.823 290.662 166.678C290.461 167.844 289.787 169.009 290.137 170.139C290.383 170.931 291.081 171.493 291.475 172.222C292.297 173.742 291.64 175.665 290.603 177.046C289.566 178.428 288.172 179.531 287.261 180.999C284.997 184.651 286.283 189.373 287.632 193.453C288.022 194.995 288.743 196.433 289.743 197.669C291.742 199.794 294.998 199.979 297.915 200.022C300.038 200.053 302.47 199.948 303.812 198.303C305.565 196.155 304.339 192.804 305.493 190.284C306.541 187.994 309.211 187.012 311.63 186.316C316.062 185.04 320.578 183.955 324.768 182.027C329.971 179.634 334.833 175.904 340.551 175.596C342.155 175.51 343.799 175.699 345.345 175.259C346.89 174.82 348.358 173.483 348.241 171.881C348.141 170.512 346.983 169.506 346.078 168.474C345.173 167.442 344.462 165.854 345.294 164.762L360.282 161.962C359.22 159.066 358.392 155.252 360.833 153.367C361.714 152.687 362.894 152.415 363.644 151.593C364.922 150.192 364.279 147.777 362.804 146.586C361.328 145.394 359.333 145.117 357.443 144.96C350.871 144.414 344.261 144.775 337.676 145.136C324.804 145.842 311.932 146.547 299.06 147.253C296.469 147.395 293.477 147.178 291.101 148.062C289.089 148.811 287.658 150.185 285.357 150.668C281.109 151.559 276.435 150.956 272.591 153.341Z" fill="#3F3D56"/>
<path d="M343.571 184.664C343.167 184.6 342.754 184.694 342.417 184.926C342.195 185.171 342.062 185.485 342.042 185.815C341.786 187.274 342.091 188.776 342.895 190.019C343.305 190.63 343.87 191.119 344.533 191.437C345.195 191.754 345.931 191.889 346.663 191.826C348.447 191.599 349.762 190.076 351.402 189.334C353.93 188.19 364.665 186.407 357.239 182.394C354.68 181.011 353.026 182.232 351.009 183.142C348.714 184.317 346.142 184.843 343.571 184.664V184.664Z" fill="#3F3D56"/>
<path d="M408.615 151.076C407.748 151.43 407.023 152.062 406.552 152.872C406.335 153.283 406.285 153.762 406.412 154.21C406.538 154.657 406.832 155.039 407.232 155.276C407.556 155.393 407.899 155.448 408.243 155.436L411.769 155.542C413.267 155.586 415.138 155.905 415.54 157.349C415.839 158.421 415.17 159.799 415.978 160.565C416.324 160.833 416.74 160.996 417.177 161.033C418.338 161.331 419.551 161.37 420.73 161.147C423.295 160.459 421.947 158.893 422.755 157.499C423.991 155.365 423.777 156.657 425.956 155.434C427.564 154.531 429.643 152.893 428.3 150.591C425.965 146.589 412.061 149.356 408.615 151.076Z" fill="#3F3D56"/>
<path d="M478.207 149.064L476.159 149.337C471.542 149.953 466.899 150.575 462.453 151.962C464.377 152.723 466.397 153.218 468.455 153.435C469.589 153.49 470.714 153.65 471.818 153.913C473.782 154.498 475.761 156.008 477.658 155.234C478.835 154.754 479.219 153.529 480.193 152.88C480.866 152.432 483.419 151.706 483.704 151.253C486.011 147.595 479.98 148.827 478.207 149.064Z" fill="#3F3D56"/>
<path d="M487.197 158.37C484.462 159.9 481.925 161.758 479.641 163.904C478.68 164.809 477.697 165.934 477.784 167.251C477.9 169.003 479.765 170.018 481.381 170.703L487.926 173.474C488.72 172.355 487.993 170.81 487.173 169.71C486.352 168.61 485.377 167.337 485.74 166.014C486.153 164.503 487.995 163.988 489.539 163.728C492.055 163.304 498.841 163.338 498.026 159.283C497.065 154.505 489.722 156.959 487.197 158.37Z" fill="#3F3D56"/>
<path d="M485.881 428.778C485.258 430.582 485.199 432.707 486.277 434.282C487.486 436.05 489.906 436.709 492 436.261C494.086 435.706 495.944 434.51 497.315 432.843C498.568 431.446 499.599 429.865 500.371 428.155C501.449 425.49 502.21 422.707 502.637 419.864L504.669 409.192C505.123 406.807 505.105 399.495 500.723 401.878C499.525 402.528 496.753 407.667 495.499 409.124C493.237 411.75 492.938 414.298 491.747 417.48C490.256 421.465 487.259 424.786 485.881 428.778Z" fill="#3F3D56"/>
<path d="M717.362 483.387C715.928 482.827 714.536 482.164 713.198 481.404C711.855 485.095 711.142 488.985 711.086 492.912L720.9 487.358C722.376 486.523 724.049 485.362 724.017 483.666C724.031 483.456 723.987 483.247 723.892 483.06C723.796 482.873 723.652 482.715 723.475 482.603C723.257 482.516 723.019 482.488 722.787 482.523C721.332 482.644 720.005 483.36 718.632 483.858C717.26 484.356 715.654 484.619 714.395 483.88" fill="#3F3D56"/>
<path d="M769.129 486.684C768.052 486.977 767 487.355 765.982 487.814C763.73 488.96 762.198 491.136 760.171 492.646C758.232 494.09 755.898 494.883 753.606 495.654C752.932 496.25 753.242 497.45 753.973 497.974C754.76 498.422 755.663 498.625 756.565 498.557C758.946 498.609 761.454 498.632 763.54 497.482C764.715 496.72 765.814 495.847 766.823 494.875C769.262 492.841 772.19 491.498 775.088 490.201C776.143 489.802 777.119 489.219 777.969 488.478C779.79 486.683 779.918 483.915 777.292 483.304C775.17 482.81 771.149 486.03 769.129 486.684Z" fill="#3F3D56"/>
<path d="M792.001 471.741C792.119 470.506 791.955 469.26 791.521 468.098C791.087 466.936 790.395 465.887 789.497 465.032C789.47 467.503 789.395 470.135 788.005 472.178C787.015 473.634 785.463 474.617 784.379 476.004C783.294 477.391 782.813 479.589 784.085 480.805C784.898 481.424 785.889 481.765 786.91 481.779C789.443 482.077 792.374 482.243 794.15 480.413C795.12 479.414 795.591 477.935 796.774 477.201C797.214 477.016 797.607 476.734 797.924 476.377C798.413 475.601 797.637 474.578 796.764 474.298C795.891 474.018 794.928 474.15 794.051 473.884C793.173 473.619 792.368 472.632 792.818 471.833" fill="#3F3D56"/>
<path d="M751.349 381.152C750.021 381.475 748.645 381.556 747.288 381.391C745.033 380.977 743.278 379.277 741.458 377.883C737.131 374.588 731.871 372.75 726.434 372.633C721.488 372.54 716.496 373.88 711.639 372.945C711.956 374.711 713.467 376.035 715.078 376.822C716.69 377.609 718.469 378.005 720.088 378.776C722.682 380.023 724.739 382.164 725.882 384.805C726.404 386.023 726.732 387.348 727.522 388.411C729.137 390.584 732.198 391.061 734.899 390.884C738.421 390.652 742.099 389.639 745.376 390.951C747.882 391.955 749.676 394.149 751.769 395.856C753.862 397.562 756.81 398.828 759.213 397.597C756.717 396.789 754.544 395.204 753.013 393.073C751.481 390.942 750.67 388.378 750.699 385.754C753.056 385.971 759.845 385.887 759.479 381.881C759.169 378.486 753.373 380.785 751.349 381.152Z" fill="#3F3D56"/>
<path d="M720.515 408.772C720.933 406.476 723.222 404.449 722.509 402.227C722.016 400.69 720.235 399.932 718.622 399.894C717.009 399.856 715.424 400.337 713.811 400.382C712.761 400.326 711.709 400.341 710.661 400.427C707.459 400.953 705.486 404.309 702.468 405.503C700.634 406.229 698.573 406.09 696.664 406.592C692.333 407.73 689.592 411.824 686.564 415.125C681.672 420.434 675.299 424.151 668.27 425.796C665.807 426.366 663.16 426.731 661.202 428.331C658.61 430.449 657.972 434.081 657.395 437.379C655.801 446.487 653.366 455.428 650.121 464.087L660.406 465.4C662.361 465.65 664.387 465.894 666.271 465.315C667.64 464.798 668.937 464.107 670.13 463.259C674.71 460.415 679.837 458.564 685.178 457.827C687.871 457.457 690.695 457.389 693.222 458.39C695.75 459.392 697.918 461.662 698.13 464.373C699.223 464.033 700.388 463.996 701.5 464.267C702.612 464.537 703.63 465.105 704.445 465.909C706.056 467.55 707.11 469.656 707.46 471.929C707.731 473.336 708.002 475.022 709.308 475.613C710.373 476.094 711.595 475.576 712.76 475.482C716.714 475.166 719.996 479.778 723.882 478.983C728.05 478.132 729.074 471.888 733.14 470.637C735.476 469.919 738.752 470.793 739.87 468.62C740.856 466.705 738.889 464.494 739.092 462.35C739.342 459.709 742.456 458.589 744.857 457.462C753.133 453.578 757.061 442.436 753.05 434.219C750.674 429.35 745.998 425.517 745.135 420.169C744.47 416.054 746.092 411.255 743.469 408.016C742.135 406.368 739.875 405.459 739.081 403.493C738.581 402.255 738.782 400.851 738.513 399.543C738.244 398.236 737.104 396.869 735.813 397.207C732.066 398.191 730.87 409.768 728.864 412.581C725.815 416.856 719.555 414.04 720.515 408.772Z" fill="#3F3D56"/>
<path d="M651.258 385.526C649.978 385.167 648.58 384.813 647.353 385.326C646.126 385.839 645.409 387.641 646.394 388.535C654.097 388.235 661.848 387.937 669.486 388.983C678.286 390.189 686.995 393.175 695.834 392.296C690.785 390.806 685.653 389.615 680.464 388.729L671.811 387.076C669.49 386.59 667.144 386.227 664.784 385.99C659.848 385.582 656.112 386.887 651.258 385.526Z" fill="#3F3D56"/>
<path d="M658.97 358.692C658.33 358.638 657.538 358.592 657.208 359.142C656.891 359.668 657.253 360.362 657.083 360.951C656.851 361.756 655.797 361.962 654.967 361.852C654.136 361.742 653.238 361.48 652.502 361.881C652.129 362.135 651.849 362.504 651.703 362.932C651.558 363.36 651.555 363.824 651.695 364.253C651.996 365.107 652.482 365.882 653.119 366.524C654.207 367.896 655.447 369.139 656.815 370.232C659.462 372.187 663.049 373.128 664.717 375.966C664.952 376.516 665.314 377.003 665.772 377.387C666.573 377.894 667.617 377.508 668.479 377.114L671.5 375.733C672.044 375.537 672.53 375.207 672.912 374.773C673.602 373.836 673.178 372.504 672.599 371.495C672.02 370.486 671.278 369.441 671.403 368.285C671.624 366.222 674.276 365.433 675.366 363.668C676.466 361.889 675.75 359.596 675.877 357.509C676.025 355.068 677.559 351.892 675.091 350.068C672.994 348.518 670.989 349.95 669.484 351.662C666.308 355.271 664.807 359.179 658.97 358.692Z" fill="#3F3D56"/>
<path d="M677.309 322.215C678.341 324.19 680.491 325.369 681.616 327.293C682.835 329.378 682.696 332.072 684.019 334.093C685.376 336.166 688.106 337.267 688.867 339.626C689.698 342.201 687.813 345.33 689.316 347.58C689.596 347.947 689.95 348.253 690.354 348.477C690.758 348.701 691.205 348.838 691.665 348.881C692.126 348.923 692.59 348.869 693.028 348.723C693.467 348.576 693.87 348.34 694.213 348.03C694.846 347.34 695.185 346.43 695.157 345.493C695.13 344.557 694.738 343.669 694.064 343.017C693.175 342.206 691.897 341.855 691.154 340.908C690.767 340.361 690.51 339.733 690.401 339.072C689.996 337.166 690.061 335.189 690.59 333.313C690.788 332.837 690.839 332.312 690.734 331.807C690.4 330.835 689.084 330.766 688.16 330.315C686.062 329.29 686.113 326.329 686.479 324.023C686.235 325.558 680.767 322.947 680.194 322.077C679.057 320.349 679.676 317.016 679.451 315.107C676.995 316.291 676.048 319.8 677.309 322.215Z" fill="#3F3D56"/>
<path d="M622.22 352.607C621.21 351.477 619.69 350.295 618.337 350.976C617.305 351.496 617.021 352.925 617.425 354.008C617.918 355.06 618.677 355.965 619.627 356.633C622.447 358.959 625.483 361.058 627.943 363.762C632.346 368.601 634.678 375.13 639.466 379.588C640.428 380.621 641.702 381.311 643.094 381.552C644.489 381.682 646.055 380.788 646.215 379.397C646.347 378.25 645.548 377.224 644.767 376.374C642.907 374.351 640.871 372.488 639.115 370.374C638.305 369.562 637.795 368.497 637.671 367.356C637.662 366.218 638.7 365.027 639.803 365.309C638.461 364.966 637.467 362.731 635.498 362.311C633.853 361.96 633.455 362.978 631.498 362.139C627.764 360.537 624.834 355.535 622.22 352.607Z" fill="#3F3D56"/>
<path d="M709.954 242.573C708.883 242.255 707.83 241.878 706.8 241.446C704.027 240.614 700.359 242.652 700.729 245.523C700.974 247.431 702.749 248.717 703.73 250.372C705.184 252.826 704.796 255.939 704.032 258.687C703.845 259.538 703.488 260.342 702.983 261.053C702.278 261.802 701.434 262.409 700.499 262.84C696.755 264.94 693.453 267.745 690.777 271.101C690.486 271.411 690.283 271.793 690.189 272.208C690.057 273.177 691.032 273.884 691.582 274.692C692.806 276.488 691.922 278.905 692.043 281.075C692.024 281.382 692.084 281.689 692.217 281.966C692.35 282.243 692.552 282.481 692.803 282.659C693.54 283.033 694.414 282.397 694.814 281.673C696.141 279.269 695.141 275.41 697.63 274.251C698.101 274.032 698.671 273.94 698.985 273.526C699.484 272.87 699.003 271.898 699.255 271.114C699.634 269.937 701.245 269.884 702.48 269.936C704.609 270.025 706.737 269.742 708.768 269.099C709.565 268.909 710.288 268.49 710.849 267.893C711.593 266.965 711.527 265.644 711.379 264.464C710.634 258.578 708.77 252.889 705.887 247.705C708.073 247.984 710.452 248.226 712.338 247.086C713.394 246.448 714.661 244.54 714.137 243.241C713.309 241.188 711.812 242.916 709.954 242.573Z" fill="#3F3D56"/>
<path d="M429.704 274.944C429.966 276.347 430.223 277.825 429.763 279.176C429.303 280.528 427.857 281.657 426.491 281.243C425.431 280.921 424.819 279.855 424.066 279.042C419.88 274.523 410.435 277.139 407.849 271.548C406.794 269.265 407.511 266.531 406.791 264.122C406.337 262.73 405.434 261.528 404.222 260.705C403.011 259.882 401.561 259.484 400.099 259.575C398.766 259.768 397.469 260.155 396.248 260.725C388.072 264 379.489 266.147 370.734 267.108C369.07 267.209 367.425 267.508 365.832 268C362.237 269.303 359.781 272.636 358.033 276.038C356.285 279.439 354.994 283.122 352.651 286.144C350.188 289.32 346.737 291.543 343.517 293.949C342.277 294.748 341.244 295.831 340.504 297.108C339.806 298.541 339.845 300.208 339.9 301.801L340.558 321.151C340.642 323.64 340.749 326.218 341.862 328.445C343.253 331.226 346 333.048 347.906 335.505C349.852 338.03 350.865 341.149 350.775 344.336C350.734 345.617 350.607 347.132 351.604 347.936C352.211 348.33 352.921 348.534 353.644 348.523L379.815 350.665C384.418 351.042 389.52 351.662 392.526 355.17C393.944 356.825 395.084 359.206 397.256 359.384C398.188 359.46 399.095 359.077 400.027 359.003C402.379 358.817 404.445 360.602 405.749 362.569C407.722 365.566 408.618 369.145 408.289 372.718C408.075 374.962 407.38 377.142 407.23 379.391C406.66 387.945 413.91 395.378 414.051 403.95C414.134 408.993 411.74 413.704 409.407 418.175C413.173 423.881 410.089 431.48 411.588 438.15C413.011 444.479 418.287 449.433 419.601 455.785C420.203 458.693 420.238 462.272 422.802 463.77C423.927 464.318 425.174 464.568 426.423 464.495C433.959 464.584 441.409 462.888 448.164 459.545C451.334 457.971 454.619 455.622 455.173 452.126C455.619 449.307 454.19 446.153 455.645 443.697C457.359 440.803 461.752 441.032 464.275 438.807C468.367 435.197 465.176 428.312 466.834 423.112C468.325 418.438 473.455 415.955 475.999 411.76C477 409.956 477.718 408.009 478.129 405.987C479.294 401.154 480.019 396.226 480.295 391.263C480.363 388.247 480.586 385.237 480.962 382.244C483.704 365.205 500.546 353.795 506.014 337.426C506.536 335.863 506.781 333.781 505.391 332.896C504.566 332.503 503.631 332.405 502.743 332.619L490.679 334.14C489.18 334.329 487.592 334.506 486.216 333.883C484.84 333.261 483.854 331.52 484.584 330.197C486.633 326.485 482.418 321.794 480.545 317.99C475.502 307.747 469.497 298.006 462.61 288.899C462.17 288.431 461.894 287.831 461.824 287.192L465.248 287.306C464.092 283.158 462.185 278.619 458.156 277.101C455.885 276.246 453.371 276.542 450.949 276.674C444.01 277.054 436.571 276.006 429.704 274.944Z" fill="#3F3D56"/>
<path d="M450.954 181.468C452.769 183.396 454.804 185.441 457.431 185.777C462.071 186.371 465.407 181.572 467.531 177.403C467.61 178.466 468.1 179.456 468.897 180.163C469.694 180.87 470.736 181.238 471.8 181.189C472.945 180.996 474.039 180.569 475.011 179.933C484.204 174.908 494.501 172.246 504.977 172.185C504.877 171.392 505.074 170.589 505.53 169.932C505.986 169.274 506.67 168.81 507.449 168.627C509.579 168.205 511.498 170.046 512.525 171.96C513.553 173.873 514.193 176.091 515.826 177.523C517.458 178.955 520.619 178.893 521.264 176.819C521.883 174.828 519.809 173.13 518.086 171.956C516.363 170.782 514.547 168.61 515.707 166.877C524.509 164.928 533.366 162.972 542.373 162.585C543.907 162.638 545.435 162.375 546.862 161.811C548.236 161.137 549.328 159.607 548.958 158.122C546.993 158.584 544.934 158.45 543.045 157.737C541.156 157.025 539.521 155.765 538.351 154.12C550.849 153.089 564.141 152.209 575.218 158.091C576.547 160.945 569.773 163.319 571.585 165.893C572.163 166.714 573.321 166.81 574.325 166.829C582.022 166.972 589.763 167.112 597.373 165.95C600.154 165.525 602.963 164.926 605.755 165.27C610.406 165.844 614.384 168.947 618.959 169.959C620.821 170.371 622.909 170.385 624.479 169.302C626.049 168.218 626.723 165.752 625.437 164.343C629.745 160.121 636.894 161.167 642.578 163.189C648.261 165.211 653.645 168.471 659.66 168.921C663.973 169.245 668.346 168.084 672.608 168.822C675.286 169.285 677.779 170.477 680.397 171.209C685.347 172.594 690.585 172.301 695.725 172.368C708.84 172.545 721.813 175.123 733.999 179.975C735.585 180.491 737.037 181.349 738.254 182.489C739.388 183.704 739.967 185.591 739.204 187.067L726.612 185.227C727.798 187.563 730.867 187.961 733.36 188.767C735.853 189.573 738.438 192.327 736.94 194.476C734.239 193.616 731.791 196.317 730.427 198.802C729.062 201.287 727.4 204.263 724.569 204.414C722.035 204.55 718.969 202.391 717.317 204.319C719.6 207.198 721.554 210.324 723.144 213.637C724.777 217.038 725.939 221.323 723.733 224.383C723.386 224.929 722.86 225.338 722.244 225.538C720.442 225.994 719.272 223.789 717.98 222.453C716.352 220.77 713.889 220.293 711.684 219.503C709.479 218.713 707.157 217.16 706.984 214.824C706.877 213.37 707.644 212.019 708.209 210.676C709.159 208.412 709.574 205.959 709.423 203.508C709.299 201.537 708.747 199.486 707.331 198.108C705.915 196.73 703.471 196.293 701.951 197.555C701.242 198.144 700.673 199.086 699.753 199.121C698.125 199.183 696.876 196.346 695.567 197.314C695.72 198.346 695.506 199.399 694.962 200.29C691.055 203.688 685.054 202.25 680.017 203.451C677.622 204.136 675.329 205.138 673.199 206.429C672.402 206.77 671.724 207.339 671.25 208.065C670.621 209.287 671.314 210.852 672.422 211.665C673.598 212.385 674.918 212.836 676.289 212.984C682.429 214.148 688.659 215.948 693.506 219.893C698.354 223.837 701.533 230.358 699.999 236.417L687.89 224.845C688.35 229.704 688.611 234.576 688.673 239.462C688.752 240.415 688.621 241.375 688.289 242.273C687.426 244.18 685.087 244.822 683.036 245.243C682.466 245.351 681.925 245.579 681.449 245.911C680.973 246.243 680.573 246.673 680.275 247.171C679.976 247.669 679.787 248.224 679.718 248.801C679.65 249.377 679.704 249.961 679.878 250.515C680.606 252.89 682.422 254.742 684.085 256.586C685.748 258.431 687.385 260.528 687.603 263.002C687.82 265.477 685.954 268.265 683.476 268.093C681.598 267.963 680.205 266.281 679.404 264.577C678.603 262.873 678.126 260.975 676.922 259.527C673.279 255.145 665.096 257.022 661.832 252.35C661 253.294 660.423 254.435 660.156 255.665C659.889 256.894 659.941 258.172 660.306 259.376C661.824 258.425 663.903 259.308 665.044 260.69C666.184 262.071 666.723 263.842 667.618 265.394C668.827 267.487 670.751 269.343 670.92 271.755C670.875 272.667 670.891 273.581 670.966 274.491C671.266 275.952 672.501 277.001 673.357 278.223C675.349 281.065 675.251 284.969 673.967 288.194C672.682 291.418 670.375 294.113 668.09 296.725C664.099 301.288 660.027 305.824 655.295 309.614C653.945 310.695 652.504 311.758 651.663 313.27C650.822 314.781 650.779 316.903 652.071 318.053C651.147 318.099 649.489 318.554 648.564 318.601C648.239 314.891 648.168 311.163 648.352 307.444C644.704 305.692 640.775 310.384 641.246 314.405C641.717 318.426 644.624 321.653 646.695 325.131C648.208 327.675 649.334 330.641 648.828 333.558C648.323 336.475 645.719 339.166 642.771 338.909C638.081 338.499 636.119 331.765 631.474 330.994C631.065 330.898 630.635 330.941 630.252 331.116C629.562 331.494 629.443 332.417 629.404 333.202C629.214 337.058 629.049 341.067 630.554 344.623C632.756 349.823 638.444 354.191 637.251 359.712C630.823 356.724 627.482 349.515 625.964 342.59C624.447 335.665 624.194 328.396 621.474 321.85C619.409 324.497 615.068 322.309 613.181 319.531C611.393 316.898 610.291 313.852 608.555 311.183C606.82 308.515 604.161 306.125 600.981 305.979C597.648 305.825 594.757 308.113 592.214 310.275C590.123 312.052 587.977 313.9 586.755 316.358C584.976 319.934 585.441 324.149 585.356 328.142C585.263 332.459 584.348 337.014 581.407 340.174C578.465 343.334 573.035 344.435 569.791 341.587C568.097 340.1 567.277 337.878 566.546 335.746C563.025 325.466 560.092 314.995 557.762 304.381C557.217 306.804 555.09 309.926 553.058 308.499C552.602 308.115 552.233 307.639 551.975 307.103C548.185 300.678 541.167 296.825 534.076 294.514C526.985 292.204 519.524 291.126 512.512 288.587C508.582 287.164 504.828 285.294 501.325 283.014C500.432 284.326 499.911 285.856 499.816 287.44C499.721 289.025 500.057 290.606 500.788 292.015C502.343 294.77 505.863 296.364 508.876 295.401C510.433 294.903 511.748 293.822 513.293 293.288C514.838 292.754 516.912 293.016 517.587 294.505C518.234 295.93 517.257 297.654 517.741 299.142C518.48 301.408 521.897 301.582 523.092 303.645C523.981 305.179 523.25 307.216 521.98 308.454C520.711 309.692 519.017 310.371 517.468 311.233C512.44 314.03 508.864 318.803 504.47 322.517C500.076 326.231 493.877 328.943 488.64 326.56C489.888 320.238 482.359 315.597 480.974 309.304C480.518 307.232 480.754 305.032 480.103 303.013C479.161 300.091 476.568 298.081 474.442 295.866C471.862 293.151 469.852 289.946 468.531 286.441C467.21 282.936 466.604 279.202 466.749 275.459C466.864 272.858 467.342 270.215 466.75 267.68C466.157 265.145 464.059 262.691 461.458 262.806C455.519 263.068 448.036 263.51 444.92 258.446C443.808 256.639 443.324 253.992 444.932 252.607C446.066 251.63 447.741 251.722 449.23 251.869L462.613 253.185C465.743 253.493 469.126 253.748 471.812 252.111C474.498 250.474 475.662 246.13 473.175 244.205C471.358 242.798 468.102 242.874 467.574 240.637C467.134 238.774 469.195 236.661 468.082 235.104C467.283 233.987 465.489 234.297 464.401 235.134C463.313 235.971 462.524 237.195 461.307 237.828C459.171 238.94 456.62 237.882 454.322 237.163C452.025 236.444 448.945 236.383 447.83 238.517C446.584 240.904 448.936 244.032 447.699 246.423C446.064 249.585 440.526 247.785 438.229 250.505C435.594 253.626 440.023 258.28 439.134 262.268C437.999 262.83 436.738 263.088 435.474 263.017C434.21 262.946 432.986 262.548 431.921 261.862C430.874 261.15 430.04 260.167 429.507 259.019C428.974 257.87 428.762 256.598 428.894 255.338C429.114 253.545 430.049 251.714 429.422 250.019C428.916 248.648 427.54 247.832 426.262 247.126L413.257 239.938C412.049 242.178 413.576 244.956 415.485 246.638C417.394 248.321 419.785 249.588 421.039 251.802C421.832 253.337 422.01 255.116 421.536 256.777C421.062 258.438 419.972 259.855 418.489 260.739C418.303 260.868 418.091 260.954 417.869 260.993C417.646 261.032 417.418 261.022 417.2 260.964C416.992 260.842 416.811 260.68 416.668 260.487C416.524 260.294 416.421 260.074 416.364 259.84C414.069 253.967 410.624 248.176 405.116 245.108C399.609 242.04 391.694 242.671 388.083 247.839C387.225 249.067 386.649 250.466 385.902 251.764C381.931 258.659 373.419 261.924 365.467 261.711C364.689 261.754 363.915 261.572 363.237 261.187C361.952 260.299 362.01 258.415 362.207 256.865L363.041 250.288C363.209 248.967 363.452 247.507 364.497 246.683C365.97 245.521 368.096 246.254 369.972 246.227C371.393 246.161 372.76 245.659 373.886 244.789C375.013 243.919 375.845 242.724 376.27 241.366C376.649 239.994 376.646 238.545 376.263 237.175C375.879 235.804 375.129 234.564 374.093 233.589C373.233 232.781 372.079 231.766 372.533 230.677C372.714 230.376 372.959 230.118 373.251 229.922C373.542 229.725 373.873 229.595 374.22 229.541C377.59 228.562 381.151 228.305 384.465 227.15C387.779 225.995 390.993 223.632 391.778 220.211C392.018 219.163 392.128 217.893 393.07 217.373C393.542 217.173 394.049 217.07 394.562 217.068C396.359 216.812 397.995 215.893 399.148 214.492C400.301 213.09 400.887 211.308 400.792 209.495C402.38 208.385 404.606 209.201 406.142 210.382C407.678 211.563 409.035 213.122 410.904 213.631C414.389 214.58 417.755 211.494 421.366 211.48C422.885 211.474 424.457 212.011 425.885 211.496C427.333 210.974 428.198 209.532 429.309 208.467C430.421 207.402 432.371 206.752 433.397 207.9L432.523 201.425C434.283 201.87 436.118 201.933 437.905 201.61C439.691 201.287 441.388 200.585 442.881 199.552L431.585 195.735C431.192 195.637 430.829 195.443 430.529 195.17C429.708 194.286 430.524 192.908 431.191 191.902C432.789 189.497 433.057 185.536 430.43 184.338C428.637 183.521 426.579 184.502 424.858 185.462L416.614 190.059C416.352 191.627 418.268 192.515 419.456 193.571C420.174 194.209 420.683 195.051 420.914 195.984C421.146 196.917 421.09 197.898 420.754 198.799C420.418 199.7 419.817 200.478 419.031 201.031C418.245 201.584 417.31 201.886 416.349 201.898C416.891 202.604 417.269 203.423 417.452 204.294C417.636 205.165 417.621 206.067 417.409 206.932L411.862 207.331C411.24 207.456 410.593 207.33 410.063 206.98C409.47 206.453 409.55 205.529 409.413 204.748C409.081 202.861 407.234 201.539 405.349 201.2C403.465 200.861 401.536 201.296 399.67 201.725C398.877 202.01 398.007 201.99 397.229 201.669C396.782 201.379 396.443 200.95 396.263 200.449C395.445 198.465 396.209 196.133 397.524 194.436C398.838 192.739 400.637 191.498 402.252 190.086C406.116 186.695 408.955 182.291 410.448 177.372C413.502 176.092 416.663 174.354 419.716 173.074C424.424 170.69 429.703 169.667 434.96 170.12L445.301 170.317C448.363 170.376 451.507 170.451 454.338 171.618C457.169 172.786 459.657 175.311 459.852 178.367C459.911 178.713 459.881 179.068 459.765 179.4C459.649 179.731 459.451 180.027 459.189 180.261C458.789 180.479 458.337 180.581 457.882 180.556C455.026 180.656 453.809 181.368 450.954 181.468Z" fill="#3F3D56"/>
<path d="M368.53 213.882C368.934 213.5 369.225 213.013 369.371 212.476C369.516 211.94 369.511 211.373 369.355 210.839C368.372 210.459 367.303 210.362 366.267 210.557C365.232 210.753 364.272 211.234 363.495 211.945C362.882 212.565 362.354 213.263 361.925 214.022C360.566 216.239 359.364 218.887 360.151 221.366C360.215 221.636 360.333 221.891 360.497 222.115C360.661 222.34 360.868 222.529 361.106 222.672C361.459 222.814 361.839 222.873 362.219 222.846C363.716 222.844 365.211 222.752 366.697 222.571C367.61 222.459 368.669 222.201 369.022 221.352C369.486 220.236 368.364 218.973 368.691 217.809C368.906 217.289 369.232 216.822 369.646 216.441C369.852 216.249 370.01 216.012 370.107 215.748C370.205 215.484 370.24 215.201 370.21 214.922C370.078 214.376 369.242 214.066 368.941 214.54" fill="#3F3D56"/>
<path d="M376.293 203.817C374.963 203.511 373.592 203.425 372.235 203.562C371.934 203.553 371.637 203.621 371.37 203.759C371.111 203.949 370.924 204.221 370.837 204.53C370.55 205.451 370.621 206.445 371.034 207.316C371.448 208.187 372.175 208.87 373.069 209.229C373.557 209.341 374.024 209.529 374.453 209.786C375.601 210.676 374.869 212.497 375.087 213.933C375.331 215.547 376.892 216.901 376.606 218.507C376.38 219.772 375.029 220.774 375.246 222.041C375.474 223.368 377.158 223.767 378.499 223.873C379.277 224.009 380.077 223.917 380.804 223.609C381.533 223.111 382.051 222.36 382.258 221.502C382.808 219.867 383.038 218.141 382.938 216.419C382.932 215.636 382.736 214.866 382.365 214.175C381.961 213.629 381.513 213.116 381.026 212.642C378.455 209.651 381.162 205.189 376.293 203.817Z" fill="#3F3D56"/>
<path opacity="0.8" d="M714.353 438.116C714.353 438.116 517.453 325.072 432.684 346.491C432.684 346.491 253.034 365.827 232.214 408.368C232.214 408.368 175.107 229.877 154.287 223.927" stroke="#6C63FF" stroke-width="2" stroke-miterlimit="10"/>
<path opacity="0.8" d="M232.214 408.368C265.229 320.312 562.663 222.737 562.663 222.737C520.427 233.447 432.684 346.491 432.684 346.491C432.684 346.491 247.086 211.433 154.287 223.927C154.287 223.927 562.96 237.314 714.354 438.116" stroke="#6C63FF" stroke-width="2" stroke-miterlimit="10"/>
<path d="M154.286 232.554C159.05 232.554 162.912 228.692 162.912 223.927C162.912 219.163 159.05 215.3 154.286 215.3C149.522 215.3 145.661 219.163 145.661 223.927C145.661 228.692 149.522 232.554 154.286 232.554Z" fill="white"/>
<path d="M232.214 416.995C236.978 416.995 240.839 413.132 240.839 408.368C240.839 403.603 236.978 399.74 232.214 399.74C227.45 399.74 223.588 403.603 223.588 408.368C223.588 413.132 227.45 416.995 232.214 416.995Z" fill="white"/>
<path d="M562.663 231.364C567.426 231.364 571.288 227.502 571.288 222.737C571.288 217.973 567.426 214.11 562.663 214.11C557.899 214.11 554.037 217.973 554.037 222.737C554.037 227.502 557.899 231.364 562.663 231.364Z" fill="white"/>
<path d="M714.353 446.743C719.117 446.743 722.979 442.881 722.979 438.116C722.979 433.351 719.117 429.489 714.353 429.489C709.589 429.489 705.728 433.351 705.728 438.116C705.728 442.881 709.589 446.743 714.353 446.743Z" fill="white"/>
<path d="M432.684 355.118C437.448 355.118 441.31 351.255 441.31 346.491C441.31 341.726 437.448 337.864 432.684 337.864C427.92 337.864 424.059 341.726 424.059 346.491C424.059 351.255 427.92 355.118 432.684 355.118Z" fill="white"/>
</g>
<defs>
<clipPath id="clip0_274_61067">
<rect width="848" height="630" fill="white"/>
</clipPath>
</defs>
</svg>
