<svg width="60" height="60" viewBox="0 0 60 60" fill="none" xmlns="http://www.w3.org/2000/svg">
<path d="M29.9999 60C13.458 60 0 46.5423 0 30.0001C0 13.4581 13.458 0 29.9999 0C46.5421 0 60 13.4581 60 30.0001C60 46.5423 46.5421 60 29.9999 60ZM29.9999 3.60006C15.4426 3.60006 3.59993 15.4428 3.59993 30.0001C3.59993 44.5571 15.4426 56.4001 29.9999 56.4001C44.557 56.4001 56.3999 44.5571 56.3999 30.0001C56.3999 15.4428 44.557 3.60006 29.9999 3.60006Z" fill="white"/>
<path d="M47.188 19.6393L42.8087 15.8198L38.4281 12.0001L34.0482 15.8198L29.668 19.6393H34.4613C32.8481 29.5525 23.688 37.2657 13.2636 35.625C12.8051 35.5536 12.6194 36.1707 13.0705 36.3276C26.0422 40.8411 40.9875 33.4243 43.149 19.6399L47.188 19.6393Z" fill="white"/>
<path d="M37.4734 32.4481C36.1264 33.6926 34.6205 34.7778 32.9893 35.6848V48.0001H37.4734V32.4481Z" fill="white"/>
<path d="M26.2632 48H30.7476V36.7839C29.3226 37.391 27.8226 37.8708 26.2632 38.2037V48Z" fill="white"/>
<path d="M39.7148 48.0001H44.1996V20.7607H44.086C43.3827 24.2369 41.8553 27.3842 39.716 30.0422V48.0001H39.7148Z" fill="white"/>
<path d="M17.2959 38.5032C15.773 38.2806 14.2736 37.9232 12.812 37.4216V48.0002H17.2959V38.5032Z" fill="white"/>
<path d="M19.5381 48.0001H24.022V38.5818C23.0024 38.7047 21.9634 38.7699 20.9074 38.7699C20.4496 38.7699 19.9928 38.7528 19.5381 38.7282V48.0001Z" fill="white"/>
</svg>
