<svg width="530" height="242" viewBox="0 0 530 242" fill="none" xmlns="http://www.w3.org/2000/svg">
<path d="M24.9958 145C24.327 145 23.6604 144.825 23.0749 144.486L16.9583 140.867C16.0458 140.356 16.4916 140.175 16.7916 140.069C18.0104 139.646 18.2562 139.548 19.5583 138.811C19.6937 138.733 19.8729 138.763 20.0124 138.846L24.7124 141.636C24.8833 141.729 25.1229 141.729 25.2791 141.636L43.602 131.061C43.7729 130.963 43.8812 130.767 43.8812 130.565V109.419C43.8812 109.213 43.7708 109.019 43.5958 108.915L25.2812 98.3481C25.1124 98.2502 24.8874 98.2502 24.7166 98.3481L6.40618 108.917C6.2291 109.019 6.1166 109.219 6.1166 109.419V130.565C6.1166 130.767 6.2291 130.958 6.40618 131.054L11.4249 133.954C14.1479 135.317 15.8166 133.713 15.8166 132.1V111.223C15.8166 110.927 16.0541 110.696 16.3499 110.696H18.6729C18.9624 110.696 19.2041 110.929 19.2041 111.223V132.1C19.2041 135.736 17.2249 137.819 13.7791 137.819C12.7208 137.819 11.8854 137.819 9.55827 136.671L4.74993 133.906C3.56243 133.221 2.8291 131.938 2.8291 130.565V109.419C2.8291 108.046 3.56452 106.763 4.74993 106.079L23.0729 95.4918C24.2333 94.8356 25.7729 94.8356 26.9229 95.4918L45.2437 106.079C46.4312 106.765 47.1687 108.046 47.1687 109.419V130.565C47.1687 131.938 46.4312 133.217 45.2437 133.906L26.9229 144.486C26.3395 144.825 25.6749 145 24.9958 145ZM39.7895 124.152C39.7895 120.194 37.1145 119.14 31.4833 118.396C25.7937 117.644 25.2145 117.254 25.2145 115.923C25.2145 114.823 25.7041 113.354 29.9187 113.354C33.6833 113.354 35.0708 114.165 35.6416 116.702C35.6916 116.942 35.9103 117.117 36.1562 117.117H38.5333C38.6812 117.117 38.8208 117.052 38.9208 116.948C39.0208 116.836 39.0749 116.692 39.0604 116.54C38.6916 112.169 35.7874 110.131 29.9187 110.131C24.6937 110.131 21.577 112.336 21.577 116.033C21.577 120.044 24.677 121.152 29.6916 121.648C35.6916 122.236 36.1562 123.113 36.1562 124.292C36.1562 126.34 34.5124 127.213 30.652 127.213C25.8041 127.213 24.7374 125.996 24.3791 123.583C24.3374 123.325 24.1166 123.136 23.852 123.136H21.4833C21.1895 123.136 20.9541 123.369 20.9541 123.663C20.9541 126.75 22.6333 130.429 30.652 130.429C36.4604 130.431 39.7895 128.146 39.7895 124.152Z" fill="white"/>
<path d="M204.521 111.356L203.029 110.527C205.323 107.258 206.692 102.346 204.975 95C204.975 95 201.106 105.477 193.329 105.131L184.225 100.067C183.883 99.8743 183.5 99.7671 183.108 99.7542H182.898C182.505 99.7674 182.12 99.8745 181.777 100.067L172.671 105.131C164.894 105.479 161.025 95 161.025 95C159.306 102.346 160.679 107.258 162.971 110.527L161.479 111.356C161.109 111.559 160.801 111.856 160.585 112.218C160.369 112.58 160.254 112.993 160.252 113.415L160.298 143.813C160.298 144.235 160.525 144.629 160.91 144.835C161.095 144.943 161.305 145 161.519 145C161.732 145 161.942 144.943 162.127 144.835L174.189 138.16C174.952 137.721 175.417 136.948 175.417 136.104V121.902C175.417 121.056 175.881 120.271 176.642 119.852L181.777 116.994C182.152 116.782 182.575 116.671 183.006 116.673C183.423 116.673 183.854 116.777 184.225 116.994L189.36 119.852C190.121 120.271 190.585 121.056 190.585 121.902V136.104C190.585 136.948 191.056 137.727 191.814 138.16L203.873 144.835C204.059 144.943 204.271 144.999 204.486 144.999C204.702 144.999 204.913 144.943 205.1 144.835C205.283 144.735 205.436 144.587 205.543 144.407C205.65 144.227 205.707 144.022 205.708 143.813L205.748 113.415C205.746 112.993 205.632 112.58 205.416 112.217C205.2 111.855 204.891 111.558 204.521 111.356V111.356Z" fill="white"/>
<g clip-path="url(#clip0_261_61061)">
<path d="M129 136.725C128.272 137 127.469 137 126.742 136.723C126.014 136.447 125.413 135.914 125.052 135.225L117.865 125.285L116.823 123.896L108.483 135.238C108.144 135.898 107.575 136.411 106.884 136.683C106.193 136.954 105.427 136.965 104.729 136.713L115.475 122.296L105.479 109.273C106.198 109.014 106.984 109.01 107.705 109.263C108.426 109.516 109.038 110.009 109.438 110.66L116.888 120.723L124.379 110.702C124.721 110.054 125.29 109.554 125.977 109.297C126.664 109.041 127.421 109.045 128.104 109.31L124.225 114.458L118.971 121.298C118.825 121.428 118.708 121.588 118.628 121.766C118.548 121.944 118.507 122.138 118.507 122.333C118.507 122.529 118.548 122.722 118.628 122.901C118.708 123.079 118.825 123.239 118.971 123.369L128.979 136.727L129 136.725ZM79.0042 122.117L79.8792 117.794C82.2834 109.246 92.0834 105.69 98.825 110.981C102.773 114.083 103.758 118.475 103.565 123.425H81.325C80.9646 132.265 87.3438 137.602 95.5 134.875C96.8222 134.399 98.0057 133.603 98.9445 132.557C99.8833 131.511 100.548 130.249 100.879 128.883C101.31 127.496 102.021 127.258 103.325 127.658C103.108 129.351 102.509 130.972 101.575 132.4C100.641 133.828 99.3951 135.025 97.9313 135.902C95.5134 137.225 92.7393 137.749 90.0055 137.4C87.2717 137.051 84.7184 135.846 82.7104 133.958C80.7251 131.724 79.5252 128.901 79.2938 125.921C79.2938 125.431 79.1271 124.973 79.0146 124.533C79.0045 123.729 78.9996 122.924 79 122.119L79.0042 122.117ZM81.3521 121.521H101.465C101.34 115.113 97.2959 110.567 91.9021 110.525C85.8979 110.442 81.6021 114.888 81.3375 121.492L81.3521 121.521Z" fill="white"/>
</g>
<path d="M351.952 240.956L366.985 237.704C366.985 237.704 361.56 201.01 361.517 200.767C361.479 200.525 361.279 200.367 361.077 200.367C360.875 200.367 357.058 200.083 357.058 200.083C357.058 200.083 354.402 197.429 354.06 197.144C353.967 197.067 353.904 197.025 353.808 196.99L351.904 240.956H351.952V240.956ZM344.396 214.552C344.396 214.552 342.708 213.669 340.7 213.669C337.685 213.669 337.567 215.556 337.567 216.046C337.567 218.612 344.317 219.619 344.317 225.69C344.317 230.471 341.317 233.523 337.221 233.523C332.317 233.523 329.846 230.471 329.846 230.471L331.192 226.125C331.192 226.125 333.785 228.346 335.942 228.346C337.348 228.346 337.973 227.21 337.973 226.404C337.973 223.031 332.444 222.875 332.444 217.323C332.373 212.662 335.717 208.123 342.5 208.123C345.119 208.123 346.406 208.875 346.406 208.875L344.437 214.531L344.396 214.552V214.552ZM343.271 192.729C343.554 192.729 343.835 192.808 344.115 193.01C342.065 193.979 339.815 196.425 338.89 201.327C337.523 201.771 336.196 202.171 334.954 202.531C336.035 198.812 338.648 192.75 343.271 192.75V192.729ZM345.844 198.873V199.154C344.273 199.637 342.546 200.162 340.856 200.687C341.827 196.985 343.633 195.177 345.2 194.498C345.602 195.542 345.844 196.948 345.844 198.873V198.873ZM346.967 194.219C348.412 194.373 349.344 196.025 349.944 197.875C349.217 198.112 348.412 198.356 347.531 198.637V198.112C347.531 196.546 347.331 195.256 346.967 194.215V194.219V194.219ZM353.2 196.904C353.158 196.904 353.075 196.948 353.037 196.948C353 196.948 352.435 197.104 351.55 197.385C350.669 194.817 349.1 192.448 346.325 192.448H346.085C345.281 191.435 344.31 191 343.469 191C336.998 191 333.906 199.077 332.937 203.179C330.45 203.94 328.64 204.504 328.437 204.583C327.031 205.027 326.992 205.067 326.829 206.396C326.673 207.358 323.017 235.694 323.017 235.694L351.269 241L353.2 196.904Z" fill="white"/>
<path d="M433.025 209.71H423.467V191H433.025C438.183 191 442.379 195.196 442.379 200.354C442.379 205.512 438.183 209.71 433.025 209.71V209.71ZM426.531 206.646H433.025C436.494 206.646 439.314 203.823 439.314 200.356C439.314 196.89 436.492 194.067 433.025 194.067H426.531V206.646V206.646ZM426.531 209.71H416.975C411.817 209.71 407.621 205.515 407.621 200.356C407.621 195.198 411.817 191 416.975 191H426.533V209.71H426.531ZM416.975 194.065C413.506 194.065 410.685 196.887 410.685 200.354C410.685 203.821 413.506 206.646 416.975 206.646H423.469V194.065H416.975ZM426.531 225.354H416.975C411.817 225.354 407.621 221.158 407.621 216C407.621 210.842 411.817 206.646 416.975 206.646H426.533V225.354H426.531ZM416.975 209.71C413.506 209.71 410.685 212.533 410.685 216C410.685 219.467 413.508 222.29 416.975 222.29H423.469V209.71H416.975ZM417.025 241C411.839 241 407.619 236.804 407.619 231.646C407.619 226.487 411.814 222.292 416.973 222.292H426.531V231.544C426.531 236.758 422.267 241 417.025 241V241ZM416.975 225.354C415.307 225.356 413.709 226.02 412.53 227.199C411.351 228.378 410.688 229.976 410.685 231.644C410.685 235.112 413.529 237.933 417.027 237.933C420.579 237.933 423.471 235.067 423.471 231.542V225.354H416.975V225.354ZM433.025 225.354H432.821C427.662 225.354 423.467 221.158 423.467 216C423.467 210.842 427.662 206.646 432.821 206.646H433.025C438.183 206.646 442.379 210.842 442.379 216C442.379 221.158 438.183 225.354 433.025 225.354V225.354ZM432.823 209.71C429.354 209.71 426.533 212.533 426.533 216C426.533 219.467 429.356 222.29 432.823 222.29H433.027C436.496 222.29 439.317 219.467 439.317 216C439.317 212.533 436.494 209.71 433.027 209.71H432.823V209.71Z" fill="white"/>
<path d="M488.604 116.265H486.637L485.565 121.781H487.31C488.469 121.781 489.331 121.562 489.898 121.127C490.465 120.69 490.846 119.962 491.044 118.942C491.235 117.962 491.148 117.271 490.785 116.869C490.421 116.467 489.696 116.265 488.604 116.265V116.265ZM499 106.85C485.194 106.85 474 112.737 474 120C474 127.262 485.194 133.152 499 133.152C512.806 133.152 524 127.262 524 120C524 112.737 512.806 106.85 499 106.85ZM492.208 122.373C491.665 122.894 491.01 123.285 490.298 123.521C489.598 123.746 488.704 123.862 487.621 123.862H485.16L484.479 127.365H481.608L484.171 114.185H489.692C491.352 114.185 492.562 114.621 493.325 115.494C494.087 116.365 494.317 117.581 494.012 119.144C493.896 119.762 493.681 120.358 493.377 120.908C493.079 121.44 492.69 121.929 492.208 122.373ZM500.592 123.862L501.723 118.031C501.854 117.369 501.804 116.915 501.581 116.675C501.358 116.433 500.881 116.312 500.15 116.312H497.875L496.408 123.865H493.558L496.121 110.683H498.969L498.287 114.187H500.825C502.423 114.187 503.523 114.467 504.129 115.023C504.735 115.579 504.917 116.481 504.677 117.729L503.485 123.862H500.592V123.862ZM516.419 119.144C516.304 119.763 516.09 120.359 515.783 120.908C515.485 121.44 515.096 121.929 514.615 122.373C514.071 122.892 513.418 123.284 512.704 123.521C512.004 123.746 511.11 123.862 510.025 123.862H507.567L506.885 127.367H504.015L506.577 114.187H512.096C513.756 114.187 514.967 114.623 515.729 115.496C516.492 116.365 516.723 117.581 516.419 119.144V119.144ZM511.013 116.265H509.048L507.973 121.781H509.719C510.879 121.781 511.742 121.562 512.306 121.127C512.873 120.69 513.254 119.962 513.454 118.942C513.646 117.962 513.556 117.271 513.194 116.869C512.831 116.467 512.102 116.265 511.013 116.265V116.265Z" fill="white"/>
<g clip-path="url(#clip1_261_61061)">
<path d="M444.254 109.313C444.274 109.38 444.283 109.451 444.283 109.521V120.248C444.283 120.529 444.131 120.79 443.89 120.927L434.883 126.115V136.394C434.883 136.531 434.847 136.667 434.778 136.786C434.709 136.905 434.611 137.004 434.492 137.073L415.688 147.894C415.644 147.918 415.598 147.937 415.55 147.95C415.533 147.954 415.517 147.967 415.5 147.971C415.369 148.008 415.231 148.008 415.1 147.971C415.077 147.967 415.058 147.954 415.038 147.946C414.996 147.929 414.95 147.917 414.908 147.894L396.111 137.073C395.991 137.004 395.892 136.906 395.822 136.786C395.753 136.667 395.717 136.532 395.717 136.394V104.196C395.717 104.127 395.727 104.058 395.746 103.992C395.752 103.967 395.767 103.95 395.775 103.925C395.788 103.884 395.804 103.843 395.823 103.804C395.831 103.777 395.854 103.758 395.871 103.736L395.94 103.642C395.965 103.621 395.992 103.604 396.017 103.586C396.046 103.561 396.073 103.536 396.102 103.515H396.104L405.506 98.1043C405.625 98.0357 405.76 97.9996 405.897 97.9996C406.034 97.9996 406.169 98.0357 406.288 98.1043L415.688 103.515H415.692C415.723 103.536 415.748 103.558 415.775 103.583L415.854 103.64C415.881 103.669 415.896 103.702 415.923 103.733C415.94 103.756 415.965 103.777 415.975 103.802C415.996 103.844 416.011 103.881 416.025 103.923C416.031 103.946 416.046 103.967 416.052 103.99C416.073 104.054 416.081 104.123 416.081 104.194V124.302L423.915 119.794V109.515C423.915 109.446 423.923 109.377 423.942 109.311C423.948 109.29 423.963 109.269 423.969 109.244C423.983 109.202 424 109.161 424.019 109.121C424.033 109.096 424.056 109.079 424.071 109.052C424.096 109.021 424.115 108.99 424.14 108.963C424.165 108.938 424.192 108.921 424.217 108.904C424.246 108.883 424.271 108.856 424.302 108.838H424.304L433.706 103.425C433.825 103.357 433.96 103.32 434.097 103.32C434.234 103.32 434.369 103.357 434.488 103.425L443.89 108.838C443.923 108.858 443.946 108.881 443.977 108.902C444.002 108.923 444.029 108.94 444.052 108.961C444.079 108.99 444.098 109.023 444.123 109.052C444.14 109.077 444.163 109.096 444.173 109.121C444.196 109.163 444.211 109.204 444.223 109.246C444.236 109.267 444.248 109.29 444.254 109.313V109.313ZM442.713 119.796V110.873L439.425 112.765L434.879 115.381V124.304L442.713 119.796ZM433.317 135.942V127.011L428.844 129.563L416.081 136.85V145.861L433.317 135.942ZM397.277 105.55V135.942L414.513 145.861V136.85L405.508 131.756L405.504 131.75H405.5C405.471 131.729 405.448 131.706 405.417 131.686C405.394 131.665 405.367 131.648 405.344 131.629L405.342 131.625C405.315 131.6 405.298 131.573 405.277 131.542C405.256 131.519 405.233 131.496 405.219 131.467H405.215C405.198 131.438 405.188 131.402 405.173 131.369C405.161 131.336 405.144 131.313 405.136 131.279C405.128 131.24 405.122 131.2 405.119 131.161C405.115 131.131 405.106 131.104 405.106 131.075V110.061L400.565 107.442L397.277 105.55ZM405.896 99.6876L398.063 104.196L405.896 108.704L413.725 104.196L405.896 99.6876ZM409.971 127.823L414.517 125.206V105.55L411.225 107.446L406.679 110.061V129.717L409.971 127.823ZM434.098 105.011L426.265 109.517L434.098 114.023L441.929 109.515L434.098 105.011ZM433.315 115.381L428.771 112.765L425.479 110.875V119.798L430.025 122.415L433.317 124.306L433.315 115.381ZM415.294 135.494L426.781 128.936L432.523 125.661L424.696 121.154L415.69 126.34L407.479 131.069L415.294 135.494Z" fill="white"/>
</g>
<g clip-path="url(#clip2_261_61061)">
<path d="M96.0082 192V208.74H112.206C112.789 208.74 113.252 209.231 113.252 209.746V226H129.971V193.046C129.971 192.768 129.86 192.502 129.664 192.306C129.468 192.11 129.202 192 128.925 192H96.0082ZM94.9665 193.042L80.179 207.848C80.1062 207.921 80.0566 208.014 80.0367 208.116C80.0167 208.217 80.0273 208.322 80.0669 208.417C80.1066 208.513 80.1737 208.594 80.2596 208.652C80.3455 208.709 80.4465 208.74 80.5498 208.74H94.9665V193.042ZM96.0082 209.781V224.954C96.0082 225.533 96.4748 226 97.054 226H112.21V210.787C112.21 210.208 111.744 209.783 111.164 209.781H96.0082ZM113.252 227.042V241.475C113.252 241.942 113.817 242.175 114.148 241.846L128.929 227.042H113.252Z" fill="white"/>
</g>
<path d="M193.779 205.088L193.623 205.902C193.381 207.446 193.469 207.888 194.131 208.46L194.771 208.99L194.108 211.944C193.712 213.706 193.227 215.183 192.919 215.669C192.654 216.088 192.346 216.704 192.279 217.035C192.169 217.431 191.794 217.829 191.221 218.181C190.715 218.469 189.721 219.24 189.017 219.858C188.454 220.365 188.067 220.675 187.856 220.808L187.169 221.352C186.948 221.706 186.823 221.992 186.775 222.208C186.727 222.431 186.754 222.579 186.825 222.688C186.894 222.792 187.012 222.865 187.175 222.91C187.367 222.956 187.565 222.972 187.762 222.958C188.208 222.928 188.65 222.85 189.079 222.725C189.225 222.685 189.34 222.648 189.44 222.615C189.594 222.425 189.95 222.067 190.581 221.444C192.256 219.792 192.896 218.888 192.235 219.131C191.992 219.219 192.102 218.998 192.521 218.556C193.404 217.696 193.91 216.396 194.969 212.319C195.806 209.1 195.806 209.054 196.423 209.054C196.712 209.054 197.531 209.104 197.531 209.104V205.088H195.652H193.779ZM201.777 211.681C201.644 211.681 201.423 211.881 201.292 212.102C201.05 212.498 201.335 212.74 204.973 215.01C207.133 216.379 208.875 217.546 208.831 217.635C208.787 217.7 207.023 218.848 204.908 220.171C201.071 222.55 201.05 222.573 201.402 223.058C201.844 223.631 201.402 223.829 206.383 220.721L210 218.406V216.665L205.965 214.173C203.783 212.806 201.887 211.704 201.777 211.681ZM168.267 211.925C168.156 211.925 166.26 213.05 164.079 214.394L160 216.885V218.627L164.056 221.163C166.306 222.55 168.202 223.698 168.29 223.698C168.377 223.698 168.554 223.498 168.731 223.256C168.996 222.838 168.773 222.66 165.048 220.302C161.5 218.075 161.125 217.767 161.479 217.525C161.7 217.371 163.375 216.333 165.183 215.21C169.306 212.675 169.085 212.85 168.754 212.321C168.623 212.102 168.4 211.904 168.269 211.925H168.267ZM186.358 211.973C185.75 211.969 184.442 212.896 180.525 216.094C180.356 216.496 180.342 216.773 180.419 216.952C180.469 217.075 180.56 217.16 180.687 217.223C180.812 217.285 180.975 217.323 181.154 217.338C181.51 217.369 181.931 217.313 182.271 217.246L182.5 217.194C182.578 217.089 182.681 217.004 182.8 216.948C183.042 216.815 184.056 215.89 185.071 214.898C186.856 213.09 187.275 212.273 186.548 212.008C186.488 211.985 186.425 211.973 186.36 211.973H186.358ZM190.933 213.229C190.398 213.244 189.433 213.865 187.781 215.183C186.952 215.856 186.427 216.219 186.146 216.294L185.054 217.156C184.644 217.906 184.583 218.371 184.692 218.627C184.719 218.69 184.758 218.748 184.807 218.795C184.857 218.843 184.915 218.881 184.979 218.906C185.138 218.969 185.308 219.001 185.479 219C185.888 218.996 186.295 218.936 186.687 218.823C186.892 218.768 187.095 218.704 187.294 218.631L187.354 218.606L187.465 218.548C187.673 218.279 188.152 217.773 188.752 217.19C190.648 215.36 191.617 214.06 191.419 213.575C191.329 213.34 191.175 213.221 190.933 213.229V213.229ZM185.883 215.479C185.729 215.496 185.383 215.763 184.76 216.308C183.86 217.104 182.879 217.563 182.54 217.358C182.461 217.376 182.381 217.393 182.302 217.408C181.956 217.477 181.525 217.533 181.14 217.502C180.958 217.491 180.78 217.447 180.615 217.371C180.459 217.3 180.334 217.174 180.265 217.017C180.187 216.829 180.187 216.596 180.275 216.298L178.921 217.41L175.856 219.946V224.056L185.898 216.146C185.896 216.059 185.907 215.973 185.931 215.89C186.008 215.61 186.004 215.469 185.883 215.481V215.479ZM190.204 216.81C190.052 216.81 189.798 217.025 189.392 217.456C188.84 218.046 187.971 218.617 187.51 218.733L187.44 218.771C187.364 218.802 187.288 218.831 187.21 218.858C187.085 218.9 186.923 218.95 186.735 219C186.36 219.102 185.894 219.196 185.477 219.185C185.281 219.185 185.086 219.147 184.904 219.073C184.733 219.002 184.595 218.868 184.521 218.698C184.4 218.408 184.448 218.002 184.713 217.425L175.854 224.402V226.913H179.746L188 220.429C188.215 220.192 188.537 219.867 188.973 219.46C190.14 218.379 190.404 218.006 190.404 217.454C190.404 217.025 190.356 216.808 190.204 216.808V216.81ZM192.169 220.873L191.462 221.577C191.067 221.952 190.36 222.415 189.877 222.613L189.781 222.654L189.775 222.665L189.754 222.685C189.735 222.7 189.727 222.702 189.712 222.708C189.52 222.781 189.324 222.846 189.125 222.902C188.684 223.031 188.23 223.111 187.771 223.142C187.554 223.156 187.336 223.137 187.125 223.085C186.942 223.045 186.78 222.938 186.671 222.785C186.571 222.631 186.542 222.425 186.598 222.171C186.643 221.99 186.709 221.815 186.796 221.65L180.135 226.913H188.994L190.052 225.7C191.506 224.004 192.169 222.792 192.169 221.754V220.873Z" fill="white"/>
<path d="M44.7271 204.219C46.4771 207.421 47.4729 211.094 47.4729 215C47.4729 223.29 42.9812 230.533 36.3 234.427L43.1646 214.579C44.4458 211.371 44.8729 208.806 44.8729 206.529C44.8729 205.685 44.8187 204.904 44.7271 204.217V204.219ZM28.1 204.435C29.4479 204.373 30.6667 204.217 30.6667 204.217C31.8792 204.06 31.7375 202.279 30.5271 202.344C30.5271 202.344 26.8708 202.625 24.5271 202.625C22.3104 202.625 18.5896 202.312 18.5896 202.312C17.3708 202.25 17.2125 204.094 18.4333 204.156C18.4333 204.156 19.5583 204.283 20.7771 204.344L24.2771 213.937L19.3396 228.687L11.1542 204.375C12.5062 204.312 13.725 204.167 13.725 204.167C14.9437 204.01 14.8 202.229 13.5896 202.3C13.5896 202.3 9.95208 202.587 7.60208 202.587C7.18542 202.587 6.68958 202.571 6.16458 202.556C10.2312 196.562 17.1562 192.531 25 192.531C30.8521 192.531 36.1771 194.765 40.1792 198.433C40.0833 198.427 39.9896 198.415 39.8854 198.415C37.6771 198.415 36.1104 200.337 36.1104 202.402C36.1104 204.256 37.1792 205.825 38.3187 207.675C39.175 209.175 40.1729 211.098 40.1729 213.877C40.1729 215.783 39.4354 218.031 38.4625 221.125L36.2229 228.594L28.0979 204.406L28.1 204.435V204.435ZM25 237.467C22.7937 237.467 20.6646 237.148 18.65 236.556L25.3937 216.96L32.3 235.892C32.35 236.002 32.4042 236.102 32.4625 236.202C30.1292 237.021 27.6187 237.471 25 237.471V237.467ZM2.52292 215C2.52292 211.742 3.22292 208.646 4.47083 205.854L15.1875 235.227C7.69583 231.583 2.525 223.898 2.52292 215ZM25 190C11.2188 190 0 201.219 0 215C0 228.781 11.2188 240 25 240C38.7812 240 50 228.781 50 215C50 201.219 38.7812 190 25 190Z" fill="white"/>
<g clip-path="url(#clip3_261_61061)">
<path d="M265.002 201C258.335 201 254.169 204.333 252.502 211C255.002 207.667 257.919 206.417 261.252 207.25C263.154 207.725 264.512 209.104 266.019 210.633C268.471 213.121 271.306 216 277.502 216C284.169 216 288.335 212.667 290.002 206C287.502 209.333 284.585 210.583 281.252 209.75C279.35 209.275 277.992 207.896 276.485 206.367C274.035 203.879 271.2 201 265.002 201ZM252.502 216C245.835 216 241.669 219.333 240.002 226C242.502 222.667 245.419 221.417 248.752 222.25C250.654 222.725 252.012 224.104 253.519 225.633C255.971 228.121 258.806 231 265.002 231C271.669 231 275.835 227.667 277.502 221C275.002 224.333 272.085 225.583 268.752 224.75C266.85 224.275 265.492 222.896 263.985 221.367C261.535 218.879 258.7 216 252.502 216Z" fill="white"/>
</g>
<path d="M508.606 206.644C507.615 207.162 507.246 208.04 507.246 210.46C507.246 210.46 507.748 209.975 508.492 209.704C509.033 209.508 509.498 209.21 509.767 209.015C510.602 208.4 510.733 207.61 510.733 206.281C510.733 206.281 509.367 206.244 508.606 206.644V206.644ZM502.731 207.21C501.923 207.923 501.685 209.058 501.685 209.058L499.01 219.423L496.785 210.937C496.569 210.035 496.179 208.921 495.56 208.167C494.773 207.208 493.173 207.146 493.002 207.146C492.831 207.146 491.231 207.208 490.444 208.167C489.827 208.921 489.435 210.035 489.219 210.937L486.994 219.421L484.319 209.056C484.319 209.056 484.083 207.921 483.277 207.208C481.962 206.056 480 206.302 480 206.302L485.123 225.671C485.123 225.671 486.813 225.794 487.658 225.362C488.769 224.796 489.298 224.358 489.971 221.723C490.569 219.375 492.244 212.473 492.4 211.981C492.479 211.74 492.577 211.158 493.004 211.158C493.437 211.158 493.529 211.737 493.604 211.981C493.758 212.473 495.437 219.375 496.035 221.723C496.708 224.358 497.235 224.796 498.348 225.362C499.192 225.794 500.881 225.671 500.881 225.671L506.006 206.302C506.006 206.302 504.042 206.056 502.731 207.21V207.21ZM510.731 209.465C510.731 209.465 510.41 209.96 509.679 210.369C509.21 210.631 508.76 210.81 508.275 211.042C507.467 211.429 507.246 211.862 507.246 212.521V225.673C507.246 225.673 508.537 225.837 509.385 225.406C510.473 224.852 510.723 224.317 510.733 221.906V210.167H510.731V209.465ZM523.502 216.033L530 206.367C530 206.367 527.256 205.9 525.898 207.135C525.029 207.927 524.058 209.35 524.058 209.35L521.667 212.798C521.55 212.977 521.396 213.173 521.156 213.173C520.912 213.173 520.76 212.977 520.646 212.798L518.254 209.35C518.254 209.35 517.281 207.927 516.412 207.135C515.054 205.9 512.31 206.365 512.31 206.365L518.81 216.033L512.327 225.671C512.327 225.671 515.185 226.033 516.544 224.796C517.412 224.004 518.252 222.717 518.252 222.717L520.646 219.271C520.76 219.092 520.912 218.896 521.156 218.896C521.398 218.896 521.55 219.092 521.667 219.271L524.058 222.717C524.058 222.717 524.948 224.004 525.817 224.796C527.175 226.033 529.983 225.671 529.983 225.671L523.502 216.033Z" fill="white"/>
<path d="M340.521 118.417H336.742V112.087H341.225C343.662 112.087 345.046 113.175 345.046 115.142C345.046 117.242 343.435 118.417 340.517 118.417H340.521ZM341.196 120.929H336.744V127.904H341.392C344.431 127.904 346.042 126.685 346.042 124.394C346.042 122.102 344.385 120.929 341.196 120.929V120.929ZM366 118.729V121.267C363.65 121.492 362.215 123.233 361.362 125.992C360.515 128.74 360.398 132.11 360.487 134.712C360.581 137.421 358.471 139.921 355.619 139.921H326.385C323.531 139.921 321.421 137.421 321.517 134.712C321.606 132.11 321.49 128.74 320.642 125.992C319.787 123.233 318.35 121.492 316 121.267V118.729C318.35 118.504 319.79 116.762 320.64 114.004C321.49 111.256 321.606 107.885 321.515 105.283C321.421 102.575 323.531 100.075 326.385 100.075H355.619C358.473 100.075 360.581 102.575 360.487 105.283C360.398 107.885 360.515 111.256 361.362 114.004C362.215 116.762 363.65 118.504 366 118.729ZM349.485 124.598C349.485 121.777 347.5 119.737 344.552 119.415V119.296C346.719 118.944 348.419 116.931 348.419 114.685C348.419 111.483 345.892 109.398 342.04 109.398H333.373V130.59H342.083C346.704 130.59 349.485 128.327 349.485 124.598V124.598Z" fill="white"/>
<path d="M262 98C275.806 98 287 109.194 287 123C287 136.806 275.806 148 262 148C248.194 148 237 136.806 237 123C237 109.194 248.194 98 262 98ZM257.031 131.329C257.396 132.673 257.356 133.929 256.981 135.063L256.846 135.437C256.796 135.565 256.737 135.687 256.683 135.804C256.392 136.408 256.004 136.971 255.527 137.492C254.073 139.073 252.044 139.673 251.173 139.169C250.235 138.623 250.702 136.387 252.39 134.606C254.204 132.694 256.806 131.462 256.806 131.462V131.456L257.031 131.329V131.329ZM277.679 108.702C276.55 104.258 269.185 102.798 262.217 105.275C258.073 106.748 253.583 109.062 250.356 112.081C246.517 115.667 245.906 118.792 246.158 120.098C247.048 124.704 253.36 127.717 255.956 129.952V129.965C255.192 130.34 249.59 133.15 248.277 136.058C246.871 139.121 248.496 141.31 249.558 141.59C252.84 142.498 256.215 140.84 258.027 138.154C259.777 135.527 259.623 132.152 258.869 130.496C259.902 130.215 261.119 130.09 262.681 130.279C267.058 130.779 267.933 133.529 267.744 134.654C267.556 135.777 266.654 136.433 266.34 136.621C266.027 136.81 265.933 136.871 265.962 136.998C265.994 137.185 266.152 137.185 266.4 137.154C266.744 137.092 268.683 136.217 268.777 134.09C268.871 131.402 266.306 128.404 261.746 128.465C259.871 128.498 258.681 128.654 257.84 128.998C257.777 128.904 257.712 128.842 257.621 128.779C254.808 125.748 249.59 123.623 249.808 119.592C249.871 118.123 250.402 114.25 259.808 109.562C267.527 105.717 273.685 106.781 274.748 109.125C276.275 112.467 271.465 118.687 263.433 119.592C260.371 119.935 258.777 118.75 258.369 118.31C257.933 117.842 257.871 117.81 257.715 117.906C257.465 118.031 257.621 118.437 257.715 118.687C257.965 119.312 258.933 120.406 260.623 120.969C262.09 121.437 265.685 121.717 269.998 120.031C274.84 118.158 278.621 112.937 277.527 108.562L277.679 108.702V108.702Z" fill="white"/>
<path d="M161.125 1H204.875L200.896 45.9229L182.952 51L165.11 45.9208L161.125 1ZM175.773 21.3125L175.29 15.65L196.246 15.6562L196.725 10.1937L169.275 10.1875L170.729 26.875H189.742L189.062 34.0125L183 35.6875L176.844 34L176.452 29.6042H171.017L171.704 38.2937L183 41.3146L194.206 38.3083L195.756 21.3146H175.773V21.3125Z" fill="white"/>
<path d="M398.177 13.2291C393.748 19.5916 394.298 27.8666 397.683 34.6229C397.76 34.7874 397.846 34.9437 397.929 35.1C397.977 35.2083 398.031 35.3083 398.089 35.4124C398.116 35.4687 398.154 35.5291 398.187 35.5833C398.241 35.6916 398.3 35.7958 398.356 35.9L398.683 36.4541C398.746 36.5562 398.802 36.6562 398.871 36.7583C398.987 36.9541 399.121 37.1479 399.241 37.3437C399.296 37.427 399.346 37.5062 399.406 37.5875C399.608 37.9055 399.824 38.2148 400.052 38.5145C400.214 38.7374 400.377 38.9541 400.552 39.1708C400.608 39.25 400.673 39.3291 400.731 39.4104L401.189 39.9708C401.248 40.0333 401.304 40.1104 401.364 40.177C401.569 40.4229 401.785 40.6625 402.002 40.9062L402.012 40.9187C402.277 41.2524 402.573 41.5594 402.898 41.8354C403.064 42.0083 403.231 42.1791 403.408 42.3458L403.619 42.5479C403.85 42.7666 404.083 42.9833 404.327 43.1916C404.331 43.1916 404.333 43.1958 404.337 43.1979L404.456 43.302C404.669 43.4875 404.883 43.6729 405.102 43.8437L405.362 44.0624C405.539 44.2041 405.725 44.3395 405.904 44.4791L406.189 44.6979C406.383 44.8437 406.589 44.9874 406.787 45.1291C406.86 45.1812 406.933 45.2333 407.008 45.2812L407.071 45.3291L407.654 45.7145L407.904 45.8812C408.212 46.077 408.516 46.2645 408.821 46.4479C408.906 46.4895 408.996 46.5395 409.077 46.5895C409.302 46.7187 409.535 46.8499 409.762 46.9708C409.887 47.0416 410.016 47.102 410.146 47.1666C410.302 47.2541 410.464 47.3395 410.633 47.427C410.673 47.4393 410.713 47.4554 410.75 47.475C410.819 47.5062 410.883 47.5395 410.95 47.5729C411.2 47.6979 411.46 47.8187 411.731 47.9375C411.781 47.9583 411.835 47.9791 411.889 48.0083C412.189 48.1395 412.491 48.2645 412.802 48.3875C412.873 48.4083 412.948 48.4437 413.021 48.4708C413.302 48.577 413.591 48.6854 413.877 48.7874L413.981 48.8249C414.302 48.9333 414.616 49.0375 414.939 49.1375C415.014 49.1583 415.091 49.1854 415.171 49.2062C415.504 49.3062 415.825 49.4249 416.158 49.4916C437.56 53.3916 443.779 36.6229 443.779 36.6229C438.554 43.427 429.283 45.2208 420.5 43.2249C420.175 43.1499 419.85 43.0458 419.521 42.9499C419.124 42.8322 418.73 42.7058 418.339 42.5708L418.21 42.5208C417.927 42.425 417.654 42.3187 417.377 42.2124C417.302 42.1819 417.225 42.1541 417.148 42.1291C416.839 42.0041 416.544 41.877 416.246 41.7458C416.181 41.725 416.127 41.6958 416.062 41.6708C415.81 41.5549 415.559 41.4368 415.308 41.3166C415.233 41.2834 415.159 41.2473 415.087 41.2083C414.891 41.1166 414.696 41.0104 414.504 40.9104C414.372 40.8472 414.242 40.7805 414.114 40.7104C413.877 40.5854 413.641 40.45 413.406 40.3208C413.335 40.2708 413.254 40.2291 413.173 40.1833C412.865 40.0007 412.56 39.8132 412.258 39.6208C412.174 39.5694 412.092 39.5152 412.012 39.4583C411.791 39.3213 411.574 39.1775 411.362 39.027C411.289 38.9791 411.223 38.927 411.148 38.875C410.94 38.7316 410.735 38.5844 410.533 38.4333C410.446 38.3625 410.352 38.2958 410.258 38.2249C410.075 38.0791 409.889 37.9437 409.706 37.7916L409.46 37.5937C409.224 37.4041 408.991 37.2096 408.762 37.0104C408.739 36.9865 408.713 36.9649 408.685 36.9458L407.962 36.2874L407.754 36.0916C407.583 35.9166 407.408 35.7499 407.233 35.5791L407.029 35.3708C406.809 35.1518 406.594 34.9274 406.385 34.6979L406.354 34.6645C406.133 34.4229 405.916 34.1749 405.702 33.9249C405.646 33.8624 405.591 33.7916 405.535 33.7229L405.062 33.1458C404.822 32.8371 404.586 32.5253 404.354 32.2104C399.483 25.5625 397.721 16.3833 401.619 8.8562L398.177 13.2291ZM411.916 7.87078C408.708 12.477 408.887 18.6395 411.387 23.5124C411.8 24.3324 412.273 25.1213 412.8 25.8729C413.279 26.5604 413.808 27.375 414.452 27.9312C414.675 28.1854 414.916 28.4312 415.169 28.6812L415.356 28.8687C415.594 29.0979 415.839 29.3208 416.085 29.5458L416.119 29.5729C416.4 29.8181 416.687 30.0557 416.981 30.2854C417.052 30.3333 417.112 30.3895 417.181 30.4375C417.473 30.6625 417.769 30.8791 418.073 31.0958L418.104 31.1145C418.233 31.2083 418.371 31.2937 418.516 31.3854C418.575 31.4229 418.641 31.4729 418.704 31.5104C418.925 31.652 419.141 31.7854 419.366 31.9208C419.402 31.9354 419.433 31.9541 419.466 31.9687C419.654 32.0833 419.858 32.1937 420.054 32.2958C420.123 32.3375 420.189 32.3687 420.262 32.4083C420.4 32.477 420.537 32.55 420.673 32.6208L420.739 32.65C421.021 32.7895 421.308 32.9187 421.589 33.0458C421.66 33.0749 421.721 33.0979 421.781 33.127C422.012 33.227 422.248 33.3229 422.481 33.4124C422.585 33.4479 422.683 33.4895 422.781 33.5208C422.994 33.5999 423.219 33.6729 423.427 33.7458L423.719 33.8395C424.025 33.9333 424.333 34.0562 424.654 34.1104C441.175 36.8458 445 24.1208 445 24.1208C441.556 29.0791 434.891 31.4395 427.789 29.5958C427.475 29.5146 427.163 29.4243 426.854 29.3249C426.754 29.2958 426.666 29.2645 426.571 29.2354C426.354 29.1604 426.131 29.0895 425.921 29.0083L425.621 28.8958C425.385 28.802 425.148 28.7145 424.921 28.6145C424.85 28.5833 424.785 28.5625 424.731 28.5312C424.439 28.4 424.146 28.2708 423.86 28.1312L423.431 27.9083L423.183 27.7833C422.996 27.6841 422.812 27.5799 422.631 27.4708C422.587 27.449 422.544 27.4246 422.502 27.3979C422.281 27.2604 422.05 27.127 421.839 26.9854C421.769 26.9458 421.704 26.8979 421.637 26.8562L421.204 26.5729C420.904 26.3645 420.61 26.1395 420.312 25.9208C420.246 25.8604 420.181 25.8104 420.116 25.7562C416.994 23.302 414.531 19.9437 413.362 16.1458C412.133 12.1937 412.404 7.76453 414.529 4.16662L411.916 7.87078ZM423.471 3.86037C421.577 6.63953 421.396 10.0895 422.7 13.152C424.085 16.4083 426.916 18.9645 430.216 20.1729C430.352 20.225 430.483 20.2687 430.625 20.3187L430.808 20.375C431 20.4375 431.194 20.5062 431.391 20.55C440.519 22.3104 442.989 15.8625 443.654 14.9166C441.481 18.0375 437.837 18.7854 433.366 17.6979C433.002 17.6068 432.643 17.4955 432.291 17.3645C431.853 17.2109 431.424 17.0342 431.004 16.8354C430.21 16.4512 429.455 15.9907 428.75 15.4604C424.746 12.425 422.264 6.63537 424.877 1.9187" fill="white"/>
<path d="M29.6458 25.0084C29.6458 26.2435 29.1553 27.428 28.2822 28.3016C27.409 29.1751 26.2247 29.6662 24.9896 29.6667C23.7541 29.6667 22.5692 29.1759 21.6956 28.3023C20.822 27.4287 20.3312 26.2438 20.3312 25.0084C20.3312 23.7733 20.8218 22.5887 21.6949 21.7152C22.5681 20.8416 23.7524 20.3506 24.9875 20.35C26.223 20.35 27.4078 20.8408 28.2814 21.7144C29.155 22.5881 29.6458 23.7729 29.6458 25.0084V25.0084ZM35.1625 2.73755C32.3583 2.73755 28.6896 4.73755 24.9792 8.20005C21.2708 4.7563 17.6 2.77922 14.7979 2.77922C13.9437 2.77922 13.1667 2.97297 12.4937 3.35838C9.62917 5.01047 8.9875 10.1584 10.4667 16.6188C4.125 18.5771 0 21.7084 0 25.0084C0 28.3209 4.14583 31.4605 10.5063 33.4042C9.03958 39.8896 9.69375 45.0459 12.5646 46.6959C13.2312 47.0855 14.0021 47.2688 14.8604 47.2688C17.6625 47.2688 21.3333 45.2688 25.0437 41.8021C28.7521 45.248 32.4229 47.2251 35.225 47.2251C36.0792 47.2251 36.8562 47.0376 37.5292 46.6521C40.3917 45.0021 41.0354 39.8542 39.5562 33.3917C45.875 31.4501 50 28.3125 50 25.0084C50 21.6959 45.8542 18.5563 39.4938 16.6084C40.9604 10.1292 40.3062 4.9688 37.4354 3.31672C36.7729 2.93338 36.0021 2.73963 35.1604 2.73755H35.1625ZM35.1521 5.00838V5.02088C35.6208 5.02088 35.9979 5.11255 36.3146 5.28547C37.7021 6.0813 38.3042 9.10838 37.8354 13.0021C37.7229 13.9605 37.5396 14.9709 37.3146 16.0021C35.3146 15.5105 33.1354 15.1334 30.8417 14.8896C29.4667 13.0042 28.0396 11.2917 26.6021 9.79172C29.9187 6.70838 33.0333 5.01672 35.1542 5.01047L35.1521 5.00838ZM14.7979 5.05005C16.9062 5.05005 20.0354 6.73338 23.3604 9.80005C21.9312 11.3 20.5062 13.0021 19.1521 14.8875C16.8458 15.1313 14.6646 15.5084 12.6667 16.0084C12.4333 14.9875 12.2604 14 12.1375 13.05C11.6583 9.15838 12.25 6.13338 13.625 5.32713C14.0208 5.13963 14.4583 5.06255 14.7979 5.05213V5.05005ZM24.9687 11.4042C25.9167 12.3792 26.8646 13.4709 27.8021 14.6625C26.8854 14.6209 25.9479 14.5917 25 14.5917C24.0417 14.5917 23.0937 14.6125 22.1667 14.6625C23.0833 13.4709 24.0312 12.3792 24.9687 11.4021V11.4042ZM25 16.8751C26.5417 16.8751 28.0771 16.9459 29.5875 17.0688C30.4333 18.2813 31.2583 19.5751 32.0521 20.9438C32.8271 22.2771 33.5312 23.6313 34.1729 24.998C33.5312 26.3625 32.8271 27.7271 32.0625 29.0605C31.2708 30.4355 30.4521 31.7438 29.6042 32.9563C28.0875 33.0876 26.55 33.1605 25 33.1605C23.4583 33.1605 21.9229 33.0876 20.4125 32.9667C19.5667 31.7542 18.7417 30.4584 17.9479 29.0917C17.1729 27.7584 16.4687 26.4042 15.8271 25.0375C16.4583 23.6688 17.1729 22.3021 17.9375 20.9667C18.7292 19.5917 19.5479 18.2875 20.3958 17.075C21.9125 16.9417 23.45 16.8709 25 16.8709V16.8751ZM17.4271 17.4042C16.9271 18.1896 16.4271 18.9938 15.9604 19.8209C15.4917 20.6334 15.0542 21.45 14.6375 22.2667C14.0854 20.9 13.6167 19.5376 13.2292 18.2105C14.5625 17.898 15.9687 17.6209 17.4271 17.4063V17.4042ZM32.5521 17.4042C34 17.6188 35.3958 17.8834 36.7312 18.2105C36.3562 19.5271 35.8875 20.8813 35.3563 22.2375C34.9396 21.425 34.5021 20.6063 34.0229 19.7917C33.5542 18.975 33.0542 18.1792 32.5542 17.4042H32.5521ZM38.9333 18.8105C39.9417 19.123 40.9 19.4709 41.7979 19.848C45.4062 21.3896 47.7396 23.4063 47.7396 25.0063C47.7292 26.6063 45.3958 28.6313 41.7875 30.1625C40.9125 30.5376 39.9542 30.8751 38.9646 31.1896C38.3812 29.1938 37.6187 27.1146 36.6729 24.9813C37.6104 22.8626 38.3604 20.7938 38.9333 18.8063V18.8105ZM11.0271 18.8188C11.6063 20.8188 12.3708 22.8959 13.3187 25.0271C12.3812 27.1459 11.6271 29.2146 11.0562 31.2021C10.0479 30.8896 9.08958 30.5396 8.20208 30.1605C4.59375 28.6251 2.26042 26.6063 2.26042 25.0063C2.26042 23.4063 4.59375 21.3771 8.20208 19.848C9.07708 19.473 10.0354 19.1355 11.0271 18.8188V18.8188ZM35.3563 27.7355C35.9083 29.1042 36.3771 30.4688 36.7646 31.7938C35.4312 32.1209 34.0229 32.398 32.5646 32.6063C33.0646 31.8251 33.5646 31.0188 34.0333 30.1938C34.5021 29.3813 34.9396 28.5521 35.3583 27.7355H35.3563ZM14.6375 27.7771C15.0542 28.5938 15.4917 29.4084 15.9708 30.2251C16.45 31.0376 16.9396 31.8334 17.4396 32.6063C15.9917 32.3938 14.5958 32.1271 13.2604 31.8021C13.6354 30.4896 14.1062 29.1313 14.6354 27.7751L14.6375 27.7771ZM37.3333 34.0001C37.5667 35.0271 37.75 36.0167 37.8625 36.9646C38.3417 40.8563 37.75 43.8813 36.375 44.6896C36.0687 44.8771 35.6708 44.9563 35.2021 44.9563C33.0937 44.9563 29.9646 43.2751 26.6396 40.2063C28.0687 38.7063 29.4937 37.0063 30.8479 35.123C33.1542 34.8771 35.3354 34.498 37.3333 33.998V34.0001ZM12.6875 34.0209C14.6875 34.5084 16.8667 34.8855 19.1604 35.1292C20.5354 37.0146 21.9625 38.7271 23.4 40.2251C20.0771 43.3146 16.9583 45.0063 14.8375 45.0063C14.3792 44.9959 13.9917 44.9021 13.6854 44.7313C12.2979 43.9396 11.6958 40.9105 12.1646 37.0167C12.2771 36.0584 12.4604 35.0501 12.6854 34.0209H12.6875ZM22.1875 35.3542C23.1042 35.3959 24.0417 35.4251 24.9896 35.4251C25.9479 35.4251 26.8958 35.4042 27.8229 35.3542C26.9062 36.5459 25.9583 37.6355 25.0208 38.6146C24.0729 37.6355 23.125 36.5459 22.1875 35.3542Z" fill="white"/>
<path d="M103.109 1C102.742 1 102.464 1.00271 102.363 1.01396C102.255 1.025 101.913 1.05771 101.605 1.08229C94.5036 1.7225 87.8517 5.55375 83.6386 11.4423C81.2926 14.7167 79.7922 18.4304 79.2255 22.3646C79.0251 23.7375 79.0005 24.1431 79.0005 26.005C79.0005 27.8669 79.0255 28.2725 79.2255 29.6458C80.5838 39.0333 87.2653 46.9206 96.3269 49.8427C97.9497 50.3658 99.6603 50.7225 101.605 50.9375C102.363 51.0208 105.638 51.0208 106.395 50.9375C109.753 50.566 112.598 49.7354 115.403 48.3035C115.833 48.0835 115.916 48.025 115.858 47.9758C115.818 47.9469 113.985 45.4887 111.786 42.5175L107.788 37.1175L102.778 29.7044C100.022 25.6285 97.754 22.296 97.7344 22.296C97.7149 22.2906 97.6955 25.585 97.6855 29.6065C97.6715 36.6485 97.6661 36.9319 97.578 37.0981C97.4509 37.3377 97.353 37.4352 97.148 37.5427C96.9917 37.6206 96.8547 37.6354 96.1167 37.6354H95.2709L95.0463 37.4937C94.907 37.4065 94.7939 37.2833 94.7188 37.1371L94.6161 36.9171L94.6272 27.1192L94.6411 17.3162L94.7924 17.1256C94.8707 17.0229 95.0369 16.8912 95.154 16.8277C95.3544 16.7298 95.4328 16.72 96.2782 16.72C97.2755 16.72 97.4415 16.759 97.7005 17.0423C97.774 17.1208 100.487 21.2062 103.732 26.1273C107.018 31.1082 110.305 36.0878 113.595 41.066L117.554 47.0623L117.754 46.9304C119.528 45.7771 121.405 44.135 122.891 42.4248C126.053 38.7937 128.091 34.3665 128.775 29.6456C128.976 28.2725 129 27.8665 129 26.005C129 24.1431 128.975 23.7375 128.775 22.3642C127.417 12.9767 120.735 5.08937 111.674 2.16729C110.076 1.64917 108.375 1.29229 106.469 1.07729C106.117 1.04062 104.212 1.00104 103.11 1.00021L103.109 1ZM111.585 16.0354C112.309 16.0354 112.436 16.0465 112.597 16.1333C112.832 16.2504 113.022 16.4754 113.091 16.7098C113.13 16.8369 113.14 19.5542 113.13 25.6773L113.116 34.4637L111.567 32.0887L110.012 29.7137V23.3263C110.012 19.1971 110.032 16.8756 110.061 16.7633C110.139 16.4898 110.31 16.2746 110.545 16.1477C110.745 16.0448 110.819 16.0352 111.586 16.0352L111.585 16.0354Z" fill="white"/>
<path d="M240.125 2H283.875L279.896 46.9229L261.952 52L244.108 46.9208L240.125 2ZM275.729 11.1937L248.271 11.1875L248.715 16.65L269.808 16.6542L269.277 22.3125H255.444L255.944 27.6729H268.823L268.06 35.0125L261.998 36.6875L255.84 35L255.448 30.6042H250.01L250.615 38.6354L262 42.1833L273.194 38.9958L275.729 11.1958V11.1937Z" fill="white"/>
<path d="M316 1H366V51H316V1ZM361.904 39.075C361.54 36.7937 360.054 34.8771 355.648 33.0896C354.115 32.3708 352.41 31.8708 351.904 30.7146C351.715 30.0271 351.685 29.6521 351.808 29.2458C352.121 27.9 353.715 27.4958 354.965 27.8708C355.777 28.1208 356.527 28.7458 356.998 29.7458C359.152 28.3375 359.152 28.3375 360.654 27.4021C360.092 26.5271 359.812 26.15 359.433 25.7771C358.121 24.3083 356.373 23.5583 353.529 23.6229L352.06 23.8083C350.652 24.1521 349.31 24.9021 348.498 25.9021C346.123 28.5917 346.808 33.2792 349.683 35.2167C352.527 37.3417 356.685 37.8083 357.217 39.8104C357.717 42.2479 355.404 43.0292 353.121 42.7479C351.431 42.3729 350.496 41.5271 349.465 39.9646L345.652 42.1542C346.09 43.1542 346.59 43.5896 347.34 44.4646C350.965 48.1229 360.027 47.9354 361.654 42.3729C361.715 42.1854 362.154 40.9042 361.808 38.9354L361.904 39.075V39.075ZM343.19 23.9812H338.506C338.506 28.0187 338.487 32.0312 338.487 36.075C338.487 38.6417 338.619 40.9979 338.2 41.7229C337.512 43.1583 335.742 42.975 334.937 42.7229C334.112 42.3146 333.694 41.7521 333.208 40.9417C333.077 40.7229 332.979 40.5333 332.944 40.5333L329.142 42.8771C329.777 44.1896 330.704 45.3187 331.9 46.0375C333.681 47.1 336.075 47.4437 338.581 46.8812C340.212 46.4104 341.619 45.4417 342.354 43.9417C343.417 42.0042 343.192 39.6292 343.181 36.9708C343.206 32.6917 343.181 28.4104 343.181 24.0979L343.19 23.9812V23.9812Z" fill="white"/>
<path d="M476.344 3C475.046 3 474 4.04583 474 5.34375V50.6562C474 51.9542 475.046 53 476.344 53H521.656C522.954 53 524 51.9542 524 50.6562V5.34375C524 4.04583 522.954 3 521.656 3H476.344ZM512.517 23.3125C513.792 23.3125 514.921 23.3896 515.906 23.5437C516.836 23.683 517.748 23.9204 518.627 24.2521V29.3729C518.205 29.081 517.757 28.8292 517.287 28.6208C516.804 28.4032 516.305 28.2221 515.794 28.0792C514.826 27.8096 513.827 27.6695 512.823 27.6625C512.198 27.6625 511.629 27.7208 511.117 27.8417C510.66 27.9394 510.222 28.1096 509.819 28.3458C509.465 28.5625 509.194 28.8229 509 29.125C508.805 29.4295 508.704 29.7844 508.708 30.1458C508.708 30.5542 508.819 30.9229 509.033 31.2479C509.25 31.5729 509.558 31.8812 509.956 32.1729C510.354 32.4646 510.837 32.7479 511.406 33.0271C511.975 33.3083 512.619 33.5979 513.335 33.8937C514.315 34.3042 515.194 34.7417 515.973 35.2021C516.752 35.6646 517.421 36.1875 517.979 36.7708C518.537 37.3521 518.963 38.0167 519.258 38.7646C519.554 39.5125 519.704 40.3812 519.704 41.375C519.704 42.7437 519.444 43.8958 518.927 44.825C518.422 45.7414 517.698 46.5181 516.819 47.0854C515.871 47.6862 514.821 48.1072 513.721 48.3271C512.542 48.5771 511.298 48.7021 509.992 48.7021C508.706 48.7077 507.423 48.5933 506.158 48.3604C505.064 48.1712 504.004 47.8253 503.008 47.3333V41.8542C504.891 43.4565 507.28 44.342 509.752 44.3542C510.446 44.3542 511.052 44.2917 511.569 44.1667C512.088 44.0417 512.519 43.8667 512.867 43.6458C513.212 43.4208 513.471 43.1583 513.644 42.8542C513.835 42.5 513.922 42.099 513.895 41.6975C513.867 41.296 513.727 40.9104 513.49 40.5854C513.18 40.1758 512.801 39.8233 512.371 39.5437C511.837 39.1897 511.274 38.8804 510.69 38.6187C509.996 38.3022 509.297 37.9993 508.592 37.7104C506.679 36.9125 505.254 35.9354 504.315 34.7833C503.377 33.6312 502.906 32.2375 502.906 30.6062C502.906 29.3271 503.162 28.2292 503.675 27.3104C504.187 26.3917 504.883 25.6354 505.767 25.0417C506.701 24.4253 507.738 23.9815 508.829 23.7312C510.037 23.4464 511.275 23.3058 512.517 23.3125V23.3125ZM481.031 23.7042H500.954V28.2167H493.804V48.3125H488.144V28.2167H481.031V23.7042Z" fill="white"/>
<defs>
<clipPath id="clip0_261_61061">
<rect width="50" height="50" fill="white" transform="translate(79 98)"/>
</clipPath>
<clipPath id="clip1_261_61061">
<rect width="50" height="50" fill="white" transform="translate(395 98)"/>
</clipPath>
<clipPath id="clip2_261_61061">
<rect width="50" height="50" fill="white" transform="translate(80 192)"/>
</clipPath>
<clipPath id="clip3_261_61061">
<rect width="50" height="50" fill="white" transform="translate(240 191)"/>
</clipPath>
</defs>
</svg>
